<svg width="180" height="80" viewBox="0 0 180 80" fill="none" xmlns="http://www.w3.org/2000/svg">
<rect width="180" height="80" rx="3" fill="#005395"/>
<path d="M62.056 16.84V49.816C62.056 56.488 60.4 61.408 57.088 64.576C53.776 67.792 48.832 69.4 42.256 69.4C38.656 69.4 35.224 68.896 31.96 67.888C28.696 66.928 26.056 65.536 24.04 63.712L27.352 58.384C29.128 59.92 31.312 61.12 33.904 61.984C36.544 62.896 39.256 63.352 42.04 63.352C46.504 63.352 49.792 62.296 51.904 60.184C54.064 58.072 55.144 54.856 55.144 50.536V47.512C53.512 49.48 51.496 50.968 49.096 51.976C46.744 52.936 44.176 53.416 41.392 53.416C37.744 53.416 34.432 52.648 31.456 51.112C28.528 49.528 26.224 47.344 24.544 44.56C22.864 41.728 22.024 38.512 22.024 34.912C22.024 31.312 22.864 28.12 24.544 25.336C26.224 22.504 28.528 20.32 31.456 18.784C34.432 17.248 37.744 16.48 41.392 16.48C44.272 16.48 46.936 17.008 49.384 18.064C51.88 19.12 53.92 20.68 55.504 22.744V16.84H62.056ZM42.184 47.368C44.68 47.368 46.912 46.84 48.88 45.784C50.896 44.728 52.456 43.264 53.56 41.392C54.712 39.472 55.288 37.312 55.288 34.912C55.288 31.216 54.064 28.24 51.616 25.984C49.168 23.68 46.024 22.528 42.184 22.528C38.296 22.528 35.128 23.68 32.68 25.984C30.232 28.24 29.008 31.216 29.008 34.912C29.008 37.312 29.56 39.472 30.664 41.392C31.816 43.264 33.376 44.728 35.344 45.784C37.36 46.84 39.64 47.368 42.184 47.368ZM91.6069 55.432C87.8149 55.432 84.4069 54.592 81.3829 52.912C78.3589 51.232 75.9829 48.928 74.2549 46C72.5749 43.024 71.7349 39.664 71.7349 35.92C71.7349 32.176 72.5749 28.84 74.2549 25.912C75.9829 22.936 78.3589 20.632 81.3829 19C84.4069 17.32 87.8149 16.48 91.6069 16.48C95.3989 16.48 98.7829 17.32 101.759 19C104.783 20.632 107.135 22.936 108.815 25.912C110.543 28.84 111.407 32.176 111.407 35.92C111.407 39.664 110.543 43.024 108.815 46C107.135 48.928 104.783 51.232 101.759 52.912C98.7829 54.592 95.3989 55.432 91.6069 55.432ZM91.6069 49.384C94.0549 49.384 96.2389 48.832 98.1589 47.728C100.127 46.576 101.663 44.992 102.767 42.976C103.871 40.912 104.423 38.56 104.423 35.92C104.423 33.28 103.871 30.952 102.767 28.936C101.663 26.872 100.127 25.288 98.1589 24.184C96.2389 23.08 94.0549 22.528 91.6069 22.528C89.1589 22.528 86.9509 23.08 84.9829 24.184C83.0629 25.288 81.5269 26.872 80.3749 28.936C79.2709 30.952 78.7189 33.28 78.7189 35.92C78.7189 38.56 79.2709 40.912 80.3749 42.976C81.5269 44.992 83.0629 46.576 84.9829 47.728C86.9509 48.832 89.1589 49.384 91.6069 49.384ZM137.31 55.432C133.518 55.432 130.11 54.592 127.086 52.912C124.062 51.232 121.686 48.928 119.958 46C118.278 43.024 117.438 39.664 117.438 35.92C117.438 32.176 118.278 28.84 119.958 25.912C121.686 22.936 124.062 20.632 127.086 19C130.11 17.32 133.518 16.48 137.31 16.48C141.102 16.48 144.486 17.32 147.462 19C150.486 20.632 152.838 22.936 154.518 25.912C156.246 28.84 157.11 32.176 157.11 35.92C157.11 39.664 156.246 43.024 154.518 46C152.838 48.928 150.486 51.232 147.462 52.912C144.486 54.592 141.102 55.432 137.31 55.432ZM137.31 49.384C139.758 49.384 141.942 48.832 143.862 47.728C145.83 46.576 147.366 44.992 148.47 42.976C149.574 40.912 150.126 38.56 150.126 35.92C150.126 33.28 149.574 30.952 148.47 28.936C147.366 26.872 145.83 25.288 143.862 24.184C141.942 23.08 139.758 22.528 137.31 22.528C134.862 22.528 132.654 23.08 130.686 24.184C128.766 25.288 127.23 26.872 126.078 28.936C124.974 30.952 124.422 33.28 124.422 35.92C124.422 38.56 124.974 40.912 126.078 42.976C127.23 44.992 128.766 46.576 130.686 47.728C132.654 48.832 134.862 49.384 137.31 49.384Z" fill="white"/>
</svg>
