<svg width="318" height="250" viewBox="0 0 318 250" fill="none" xmlns="http://www.w3.org/2000/svg">
<rect width="250" height="250" transform="translate(34)" fill="#005395"/>
<path d="M107.972 93.2V103H95.386V93.2H97.178V101.46H100.79V93.2H102.582V101.46H106.18V93.2H107.972ZM117.222 100.732H112.322L111.356 103H109.48L113.89 93.2H115.682L120.106 103H118.202L117.222 100.732ZM116.62 99.304L114.772 95.02L112.938 99.304H116.62ZM122.25 93.2L124.56 96.476L126.87 93.2H128.998L125.708 97.904L129.264 103H127.108L124.56 99.43L122.026 103H119.926L123.468 97.974L120.15 93.2H122.25ZM129.74 101.46V105.086H128.06V103H127.108V101.46H129.74ZM134.965 93.2C135.814 93.2 136.551 93.34 137.177 93.62C137.811 93.9 138.297 94.3013 138.633 94.824C138.969 95.3467 139.137 95.9673 139.137 96.686C139.137 97.3953 138.969 98.016 138.633 98.548C138.297 99.0707 137.811 99.472 137.177 99.752C136.551 100.032 135.814 100.172 134.965 100.172H132.753V103H130.933V93.2H134.965ZM134.881 98.632C135.674 98.632 136.276 98.464 136.687 98.128C137.097 97.792 137.303 97.3113 137.303 96.686C137.303 96.0607 137.097 95.58 136.687 95.244C136.276 94.908 135.674 94.74 134.881 94.74H132.753V98.632H134.881ZM140.872 93.2H142.664V100.158L147.928 93.2H149.622V103H147.83V96.056L142.566 103H140.872V93.2ZM156.253 93.2H163.883V94.698H158.045V97.106H160.943C162.119 97.106 163.011 97.3533 163.617 97.848C164.233 98.3333 164.541 99.038 164.541 99.962C164.541 100.933 164.205 101.684 163.533 102.216C162.861 102.739 161.905 103 160.663 103H156.253V93.2ZM160.565 101.6C161.265 101.6 161.797 101.465 162.161 101.194C162.525 100.923 162.707 100.531 162.707 100.018C162.707 99.01 161.993 98.506 160.565 98.506H158.045V101.6H160.565ZM173.884 101.474V103H166.534V93.2H173.688V94.726H168.354V97.274H173.086V98.772H168.354V101.474H173.884ZM176.938 93.2L179.248 96.476L181.558 93.2H183.686L180.396 97.904L183.952 103H181.796L179.248 99.43L176.714 103H174.614L178.156 97.974L174.838 93.2H176.938ZM191.501 100.732H186.601L185.635 103H183.759L188.169 93.2H189.961L194.385 103H192.481L191.501 100.732ZM190.899 99.304L189.051 95.02L187.217 99.304H190.899ZM202.507 94.74H199.259V103H197.453V94.74H194.219V93.2H202.507V94.74ZM210.081 100.732H205.181L204.215 103H202.339L206.749 93.2H208.541L212.965 103H211.061L210.081 100.732ZM209.479 99.304L207.631 95.02L205.797 99.304H209.479ZM218.5 93.2C219.349 93.2 220.086 93.34 220.712 93.62C221.346 93.9 221.832 94.3013 222.168 94.824C222.504 95.3467 222.672 95.9673 222.672 96.686C222.672 97.3953 222.504 98.016 222.168 98.548C221.832 99.0707 221.346 99.472 220.712 99.752C220.086 100.032 219.349 100.172 218.5 100.172H216.288V103H214.468V93.2H218.5ZM218.416 98.632C219.209 98.632 219.811 98.464 220.222 98.128C220.632 97.792 220.838 97.3113 220.838 96.686C220.838 96.0607 220.632 95.58 220.222 95.244C219.811 94.908 219.209 94.74 218.416 94.74H216.288V98.632H218.416Z" fill="white"/>
<path d="M137.051 44.0029V59.9966C137.051 61.3958 137.421 62.7703 138.124 63.982C138.826 65.1938 139.837 66.2001 141.054 66.8998L154.964 74.8949C156.182 75.5947 157.562 75.9631 158.968 75.9631C160.373 75.9631 161.754 75.5947 162.971 74.8949L176.882 66.8998C178.1 66.201 179.112 65.1951 179.816 63.9833C180.52 62.7715 180.891 61.3965 180.892 59.9966V44.0029C180.892 42.6039 180.522 41.2296 179.819 40.0181C179.117 38.8066 178.106 37.8007 176.889 37.1015L162.978 29.1047C161.761 28.4048 160.38 28.0364 158.975 28.0364C157.569 28.0364 156.189 28.4048 154.972 29.1047L141.061 37.1015C139.843 37.7998 138.83 38.8053 138.126 40.0168C137.422 41.2284 137.051 42.6032 137.051 44.0029V44.0029Z" fill="#005395" stroke="white" stroke-width="2.5" stroke-miterlimit="10"/>
<path d="M151.354 57.9827H152.604V54.6804H153.455V58.6896H148.397V54.6804H149.251V57.9827H150.501V54.6804H151.361L151.354 57.9827Z" fill="white"/>
<path d="M156.934 58.6893L156.643 57.7343H155.175L154.876 58.6893H153.973L155.393 54.6639H156.437L157.863 58.6893H156.934ZM156.439 57.022C156.17 56.1586 156.016 55.6694 155.984 55.5561C155.951 55.4428 155.924 55.3528 155.91 55.2863C155.85 55.5261 155.676 56.1047 155.389 57.022H156.439Z" fill="white"/>
<path d="M161.126 57.9594H161.934V59.857H161.11V58.6896H160.642L159.706 57.1734L158.77 58.6896H157.854L159.191 56.623L157.948 54.6804H158.89L159.757 56.1193L160.608 54.6804H161.527L160.263 56.6697L161.126 57.9594Z" fill="white"/>
<path d="M165.333 55.9321C165.345 56.1167 165.315 56.3015 165.245 56.4728C165.175 56.644 165.067 56.7974 164.929 56.9214C164.597 57.1688 164.187 57.29 163.773 57.2631H163.411V58.6895H162.559V54.6803H163.845C164.241 54.6532 164.635 54.7645 164.958 54.995C165.088 55.1122 165.19 55.2576 165.255 55.4201C165.32 55.5826 165.347 55.7577 165.333 55.9321V55.9321ZM163.406 56.5707H163.688C163.896 56.5856 164.103 56.5312 164.277 56.416C164.343 56.3615 164.395 56.2921 164.429 56.2136C164.463 56.1351 164.477 56.0498 164.472 55.9645C164.478 55.8837 164.467 55.8025 164.439 55.7264C164.411 55.6503 164.367 55.5812 164.309 55.5238C164.16 55.4169 163.977 55.3665 163.794 55.3817H163.406V56.5707Z" fill="white"/>
<path d="M166.094 54.6804H166.862V56.6176L166.851 57.1356L166.824 57.7237H166.84L168.699 54.6804H169.722V58.6896H168.968V56.7651C168.968 56.5078 168.985 56.1247 169.017 55.6193H168.996L167.129 58.6896H166.101L166.094 54.6804Z" fill="white"/>
<path d="M147.863 62.6948H148.192C148.621 62.6678 149.047 62.7788 149.408 63.0114C149.548 63.1144 149.661 63.2504 149.736 63.4073C149.811 63.5642 149.846 63.7371 149.838 63.9107C149.838 64.7501 149.283 65.1698 148.174 65.1698H147.001V61.1552H149.545V61.8584H147.856L147.863 62.6948ZM147.863 64.4683H148.149C148.369 64.4842 148.589 64.4361 148.783 64.3298C148.849 64.2829 148.903 64.2197 148.938 64.1463C148.973 64.0729 148.989 63.9918 148.983 63.9107C148.989 63.8322 148.973 63.7535 148.937 63.6833C148.901 63.6132 148.847 63.5543 148.779 63.5132C148.56 63.4144 148.32 63.3723 148.08 63.3909H147.863V64.4683Z" fill="white"/>
<path d="M152.928 65.1644H150.608V61.1552H152.928V61.853H151.463V62.7326H152.825V63.4287H151.463V64.4629H152.928V65.1644Z" fill="white"/>
<path d="M157.021 65.1644H156.047L155.11 63.6481L154.174 65.1644H153.26L154.595 63.0977L153.345 61.1552H154.288L155.155 62.5941L156.006 61.1552H156.925L155.661 63.1427L157.021 65.1644Z" fill="white"/>
<path d="M159.993 65.1641L159.7 64.209H158.234L157.948 65.1641H157.029L158.45 61.1387H159.495L160.92 65.1641H159.993ZM159.498 63.4967C159.227 62.6334 159.075 62.1447 159.041 62.0308C159.009 61.9175 158.983 61.8276 158.969 61.761C158.907 62.0008 158.734 62.5794 158.449 63.4967H159.498Z" fill="white"/>
<path d="M162.973 65.1644H162.12V61.8638H161.036V61.1552H164.075V61.8638H162.982L162.973 65.1644Z" fill="white"/>
<path d="M167.151 65.1641L166.858 64.209H165.391L165.099 65.1641H164.179L165.599 61.1387H166.643L168.071 65.1641H167.151ZM166.654 63.4967C166.384 62.6334 166.233 62.1447 166.199 62.0308C166.165 61.9175 166.141 61.8276 166.127 61.761C166.065 62.0008 165.891 62.5794 165.605 63.4967H166.654Z" fill="white"/>
<path d="M171.358 62.4068C171.372 62.5928 171.343 62.7794 171.273 62.9524C171.203 63.1253 171.095 63.2802 170.956 63.4051C170.623 63.6528 170.213 63.774 169.799 63.7468H169.438V65.1732H168.583V61.155H169.872C170.269 61.1282 170.662 61.2395 170.986 61.4697C171.116 61.5875 171.216 61.7331 171.281 61.8955C171.345 62.0579 171.372 62.2328 171.358 62.4068V62.4068ZM169.431 63.0454H169.711C169.919 63.0606 170.126 63.0062 170.3 62.8907C170.366 62.8364 170.419 62.7671 170.453 62.6886C170.487 62.6101 170.502 62.5246 170.497 62.4392C170.503 62.3583 170.492 62.2769 170.463 62.2008C170.435 62.1247 170.39 62.0556 170.332 61.9985C170.184 61.8916 170.002 61.8412 169.819 61.8564H169.431V63.0454Z" fill="white"/>
<path d="M169.035 43.3119L158.266 37.1803C157.85 36.9543 157.365 36.8866 156.903 36.9898C156.44 37.093 156.031 37.3602 155.751 37.7414L153.665 40.711C153.527 40.9071 153.432 41.1294 153.385 41.3641C153.338 41.5987 153.341 41.8404 153.393 42.074C153.445 42.3075 153.545 42.5277 153.687 42.7207C153.829 42.9137 154.01 43.0752 154.218 43.195L156.488 44.5008L156.078 45.0404C155.852 45.3374 155.732 45.7008 155.735 46.0735C155.739 46.4462 155.866 46.8072 156.098 47.0999L155.495 47.9992H152.557V46.8211C152.557 46.7693 152.547 46.718 152.527 46.6702C152.507 46.6224 152.478 46.579 152.441 46.5425C152.404 46.5061 152.36 46.4773 152.312 46.4578C152.264 46.4383 152.212 46.4285 152.16 46.429H150.572C150.52 46.4285 150.468 46.4383 150.42 46.4578C150.372 46.4773 150.328 46.5061 150.291 46.5425C150.254 46.579 150.225 46.6224 150.205 46.6702C150.185 46.718 150.175 46.7693 150.175 46.8211V50.7781C150.175 50.8831 150.216 50.9837 150.291 51.0579C150.366 51.1321 150.467 51.1738 150.572 51.1738H152.167C152.219 51.174 152.271 51.164 152.32 51.1442C152.368 51.1244 152.412 51.0952 152.449 51.0584C152.486 51.0216 152.515 50.9779 152.535 50.9298C152.555 50.8817 152.565 50.8301 152.565 50.7781V50.3824H155.502C155.895 50.384 156.283 50.2884 156.63 50.1041C156.976 49.9198 157.272 49.6527 157.489 49.3266L158.14 48.3535C158.508 48.4462 158.897 48.4158 159.246 48.267C159.595 48.1181 159.886 47.8591 160.073 47.5297L160.51 46.8103L163.888 48.7528C163.948 48.7881 164.017 48.8067 164.087 48.8068C164.126 48.8071 164.165 48.801 164.203 48.7888C164.254 48.7734 164.302 48.7476 164.344 48.7129C164.385 48.6783 164.419 48.6355 164.443 48.5873L164.737 48.001C164.784 48.001 164.831 48.0154 164.88 48.0154C165.616 48.0111 166.321 47.7164 166.84 47.1959C167.359 46.6754 167.649 45.9715 167.648 45.2382C167.645 45.064 167.624 44.8904 167.586 44.7202L169.017 44.0008C169.081 43.9683 169.135 43.9192 169.174 43.8588C169.212 43.7983 169.233 43.7287 169.236 43.6572C169.236 43.5871 169.218 43.5181 169.182 43.4574C169.147 43.3967 169.096 43.3465 169.035 43.3119V43.3119ZM151.764 50.3824H150.969V47.2168H151.764V50.3824ZM156.823 48.8895C156.678 49.1061 156.482 49.2836 156.251 49.4063C156.021 49.529 155.763 49.5931 155.502 49.5928H152.557V48.8032H155.495C155.626 48.8027 155.755 48.7695 155.87 48.7067C155.986 48.6439 156.083 48.5534 156.154 48.4435L156.705 47.6215L157.386 48.0298L156.823 48.8895ZM159.386 47.125C159.243 47.3496 159.019 47.5108 158.759 47.5754C158.5 47.64 158.226 47.6031 157.993 47.4722L156.987 46.8714C156.875 46.8052 156.779 46.7164 156.704 46.6107C156.629 46.5049 156.578 46.3847 156.553 46.2577C156.528 46.1308 156.53 46 156.559 45.874C156.588 45.7479 156.643 45.6293 156.722 45.526L157.189 44.9037L159.816 46.4128L159.386 47.125ZM163.91 47.8553L154.617 42.5169C154.504 42.4524 154.406 42.3652 154.329 42.2609C154.252 42.1566 154.197 42.0374 154.169 41.9109C154.141 41.7845 154.14 41.6536 154.165 41.5266C154.19 41.3996 154.242 41.2793 154.317 41.1733L155.314 39.7559L165.142 45.4001L163.91 47.8553ZM165.129 47.1952L165.96 45.5386L166.842 45.0997C166.842 45.1483 166.855 45.1969 166.855 45.2454C166.852 45.7233 166.675 46.184 166.358 46.5424C166.04 46.9007 165.603 47.1326 165.127 47.1952H165.129ZM165.671 44.794L155.769 39.1048L156.402 38.2055C156.562 37.9783 156.801 37.8187 157.073 37.7578C157.345 37.6969 157.63 37.7392 157.872 37.8763L167.998 43.632L165.671 44.794Z" fill="white"/>
<path d="M163.279 46.4295C163.498 46.4295 163.676 46.2523 163.676 46.0338C163.676 45.8152 163.498 45.6381 163.279 45.6381C163.059 45.6381 162.881 45.8152 162.881 46.0338C162.881 46.2523 163.059 46.4295 163.279 46.4295Z" fill="white"/>
<path d="M71.2444 129.2V139H69.4524V130.74H64.3704V139H62.5784V129.2H71.2444ZM77.9557 131.44C78.6837 131.44 79.3324 131.599 79.9017 131.916C80.4804 132.233 80.9331 132.681 81.2597 133.26C81.5864 133.839 81.7497 134.506 81.7497 135.262C81.7497 136.018 81.5864 136.69 81.2597 137.278C80.9331 137.857 80.4804 138.305 79.9017 138.622C79.3324 138.939 78.6837 139.098 77.9557 139.098C76.9477 139.098 76.1497 138.762 75.5617 138.09V141.716H73.8117V131.524H75.4777V132.504C75.7671 132.149 76.1217 131.883 76.5417 131.706C76.9711 131.529 77.4424 131.44 77.9557 131.44ZM77.7597 137.6C78.4037 137.6 78.9311 137.385 79.3417 136.956C79.7617 136.527 79.9717 135.962 79.9717 135.262C79.9717 134.562 79.7617 133.997 79.3417 133.568C78.9311 133.139 78.4037 132.924 77.7597 132.924C77.3397 132.924 76.9617 133.022 76.6257 133.218C76.2897 133.405 76.0237 133.675 75.8277 134.03C75.6317 134.385 75.5337 134.795 75.5337 135.262C75.5337 135.729 75.6317 136.139 75.8277 136.494C76.0237 136.849 76.2897 137.124 76.6257 137.32C76.9617 137.507 77.3397 137.6 77.7597 137.6ZM86.8234 139.098C86.0674 139.098 85.3861 138.935 84.7794 138.608C84.1728 138.281 83.6968 137.829 83.3514 137.25C83.0154 136.662 82.8474 135.999 82.8474 135.262C82.8474 134.525 83.0154 133.867 83.3514 133.288C83.6968 132.709 84.1728 132.257 84.7794 131.93C85.3861 131.603 86.0674 131.44 86.8234 131.44C87.5888 131.44 88.2748 131.603 88.8814 131.93C89.4881 132.257 89.9594 132.709 90.2954 133.288C90.6408 133.867 90.8134 134.525 90.8134 135.262C90.8134 135.999 90.6408 136.662 90.2954 137.25C89.9594 137.829 89.4881 138.281 88.8814 138.608C88.2748 138.935 87.5888 139.098 86.8234 139.098ZM86.8234 137.6C87.4674 137.6 87.9994 137.385 88.4194 136.956C88.8394 136.527 89.0494 135.962 89.0494 135.262C89.0494 134.562 88.8394 133.997 88.4194 133.568C87.9994 133.139 87.4674 132.924 86.8234 132.924C86.1794 132.924 85.6474 133.139 85.2274 133.568C84.8168 133.997 84.6114 134.562 84.6114 135.262C84.6114 135.962 84.8168 136.527 85.2274 136.956C85.6474 137.385 86.1794 137.6 86.8234 137.6ZM97.9602 135.108C98.8842 135.388 99.3462 135.985 99.3462 136.9C99.3462 137.572 99.0942 138.09 98.5902 138.454C98.0862 138.818 97.3395 139 96.3502 139H92.5422V131.524H96.1962C97.1109 131.524 97.8249 131.692 98.3382 132.028C98.8515 132.364 99.1082 132.84 99.1082 133.456C99.1082 133.839 99.0055 134.17 98.8002 134.45C98.6042 134.73 98.3242 134.949 97.9602 135.108ZM94.2082 134.646H96.0422C96.9475 134.646 97.4002 134.333 97.4002 133.708C97.4002 133.101 96.9475 132.798 96.0422 132.798H94.2082V134.646ZM96.2102 137.726C97.1715 137.726 97.6522 137.413 97.6522 136.788C97.6522 136.461 97.5402 136.219 97.3162 136.06C97.0922 135.892 96.7422 135.808 96.2662 135.808H94.2082V137.726H96.2102ZM108.21 135.304C108.21 135.425 108.201 135.598 108.182 135.822H102.316C102.419 136.373 102.685 136.811 103.114 137.138C103.553 137.455 104.094 137.614 104.738 137.614C105.56 137.614 106.236 137.343 106.768 136.802L107.706 137.88C107.37 138.281 106.946 138.585 106.432 138.79C105.919 138.995 105.34 139.098 104.696 139.098C103.875 139.098 103.152 138.935 102.526 138.608C101.901 138.281 101.416 137.829 101.07 137.25C100.734 136.662 100.566 135.999 100.566 135.262C100.566 134.534 100.73 133.881 101.056 133.302C101.392 132.714 101.854 132.257 102.442 131.93C103.03 131.603 103.693 131.44 104.43 131.44C105.158 131.44 105.807 131.603 106.376 131.93C106.955 132.247 107.403 132.7 107.72 133.288C108.047 133.867 108.21 134.539 108.21 135.304ZM104.43 132.84C103.87 132.84 103.394 133.008 103.002 133.344C102.62 133.671 102.386 134.109 102.302 134.66H106.544C106.47 134.119 106.241 133.68 105.858 133.344C105.476 133.008 105 132.84 104.43 132.84ZM114.268 131.44C114.996 131.44 115.645 131.599 116.214 131.916C116.793 132.233 117.246 132.681 117.572 133.26C117.899 133.839 118.062 134.506 118.062 135.262C118.062 136.018 117.899 136.69 117.572 137.278C117.246 137.857 116.793 138.305 116.214 138.622C115.645 138.939 114.996 139.098 114.268 139.098C113.26 139.098 112.462 138.762 111.874 138.09V141.716H110.124V131.524H111.79V132.504C112.08 132.149 112.434 131.883 112.854 131.706C113.284 131.529 113.755 131.44 114.268 131.44ZM114.072 137.6C114.716 137.6 115.244 137.385 115.654 136.956C116.074 136.527 116.284 135.962 116.284 135.262C116.284 134.562 116.074 133.997 115.654 133.568C115.244 133.139 114.716 132.924 114.072 132.924C113.652 132.924 113.274 133.022 112.938 133.218C112.602 133.405 112.336 133.675 112.14 134.03C111.944 134.385 111.846 134.795 111.846 135.262C111.846 135.729 111.944 136.139 112.14 136.494C112.336 136.849 112.602 137.124 112.938 137.32C113.274 137.507 113.652 137.6 114.072 137.6ZM125.872 131.524V139H124.304V136.746H122.33L120.804 139H118.928L120.692 136.508C120.151 136.321 119.735 136.037 119.446 135.654C119.166 135.262 119.026 134.781 119.026 134.212C119.026 133.353 119.329 132.691 119.936 132.224C120.543 131.757 121.378 131.524 122.442 131.524H125.872ZM122.498 132.994C121.369 132.994 120.804 133.419 120.804 134.268C120.804 135.108 121.35 135.528 122.442 135.528H124.304V132.994H122.498ZM128.226 131.524H129.976V136.452L134.106 131.524H135.702V139H133.952V134.072L129.836 139H128.226V131.524ZM131.852 130.642C131.096 130.642 130.517 130.469 130.116 130.124C129.724 129.769 129.523 129.256 129.514 128.584H130.676C130.685 128.92 130.788 129.186 130.984 129.382C131.189 129.578 131.474 129.676 131.838 129.676C132.192 129.676 132.472 129.578 132.678 129.382C132.892 129.186 133.004 128.92 133.014 128.584H134.204C134.194 129.256 133.989 129.769 133.588 130.124C133.186 130.469 132.608 130.642 131.852 130.642ZM143.978 133.008H141.36V139H139.61V133.008H136.978V131.524H143.978V133.008ZM151.919 135.304C151.919 135.425 151.91 135.598 151.891 135.822H146.025C146.128 136.373 146.394 136.811 146.823 137.138C147.262 137.455 147.803 137.614 148.447 137.614C149.268 137.614 149.945 137.343 150.477 136.802L151.415 137.88C151.079 138.281 150.654 138.585 150.141 138.79C149.628 138.995 149.049 139.098 148.405 139.098C147.584 139.098 146.86 138.935 146.235 138.608C145.61 138.281 145.124 137.829 144.779 137.25C144.443 136.662 144.275 135.999 144.275 135.262C144.275 134.534 144.438 133.881 144.765 133.302C145.101 132.714 145.563 132.257 146.151 131.93C146.739 131.603 147.402 131.44 148.139 131.44C148.867 131.44 149.516 131.603 150.085 131.93C150.664 132.247 151.112 132.7 151.429 133.288C151.756 133.867 151.919 134.539 151.919 135.304ZM148.139 132.84C147.579 132.84 147.103 133.008 146.711 133.344C146.328 133.671 146.095 134.109 146.011 134.66H150.253C150.178 134.119 149.95 133.68 149.567 133.344C149.184 133.008 148.708 132.84 148.139 132.84ZM161.104 139.098C160.33 139.098 159.634 138.935 159.018 138.608C158.402 138.281 157.922 137.829 157.576 137.25C157.231 136.662 157.058 135.999 157.058 135.262C157.058 134.525 157.231 133.867 157.576 133.288C157.922 132.709 158.398 132.257 159.004 131.93C159.62 131.603 160.32 131.44 161.104 131.44C161.842 131.44 162.486 131.589 163.036 131.888C163.596 132.187 164.016 132.616 164.296 133.176L162.952 133.96C162.738 133.615 162.467 133.358 162.14 133.19C161.823 133.013 161.473 132.924 161.09 132.924C160.437 132.924 159.896 133.139 159.466 133.568C159.037 133.988 158.822 134.553 158.822 135.262C158.822 135.971 159.032 136.541 159.452 136.97C159.882 137.39 160.428 137.6 161.09 137.6C161.473 137.6 161.823 137.516 162.14 137.348C162.467 137.171 162.738 136.909 162.952 136.564L164.296 137.348C164.007 137.908 163.582 138.342 163.022 138.65C162.472 138.949 161.832 139.098 161.104 139.098ZM171.255 135.108C172.179 135.388 172.641 135.985 172.641 136.9C172.641 137.572 172.389 138.09 171.885 138.454C171.381 138.818 170.634 139 169.645 139H165.837V131.524H169.491C170.406 131.524 171.12 131.692 171.633 132.028C172.146 132.364 172.403 132.84 172.403 133.456C172.403 133.839 172.3 134.17 172.095 134.45C171.899 134.73 171.619 134.949 171.255 135.108ZM167.503 134.646H169.337C170.242 134.646 170.695 134.333 170.695 133.708C170.695 133.101 170.242 132.798 169.337 132.798H167.503V134.646ZM169.505 137.726C170.466 137.726 170.947 137.413 170.947 136.788C170.947 136.461 170.835 136.219 170.611 136.06C170.387 135.892 170.037 135.808 169.561 135.808H167.503V137.726H169.505ZM177.837 139.098C177.081 139.098 176.4 138.935 175.793 138.608C175.186 138.281 174.71 137.829 174.365 137.25C174.029 136.662 173.861 135.999 173.861 135.262C173.861 134.525 174.029 133.867 174.365 133.288C174.71 132.709 175.186 132.257 175.793 131.93C176.4 131.603 177.081 131.44 177.837 131.44C178.602 131.44 179.288 131.603 179.895 131.93C180.502 132.257 180.973 132.709 181.309 133.288C181.654 133.867 181.827 134.525 181.827 135.262C181.827 135.999 181.654 136.662 181.309 137.25C180.973 137.829 180.502 138.281 179.895 138.608C179.288 138.935 178.602 139.098 177.837 139.098ZM177.837 137.6C178.481 137.6 179.013 137.385 179.433 136.956C179.853 136.527 180.063 135.962 180.063 135.262C180.063 134.562 179.853 133.997 179.433 133.568C179.013 133.139 178.481 132.924 177.837 132.924C177.193 132.924 176.661 133.139 176.241 133.568C175.83 133.997 175.625 134.562 175.625 135.262C175.625 135.962 175.83 136.527 176.241 136.956C176.661 137.385 177.193 137.6 177.837 137.6ZM183.556 131.524H185.306V136.452L189.436 131.524H191.032V139H189.282V134.072L185.166 139H183.556V131.524ZM208.273 131.524V139H197.255V131.524H199.005V137.516H201.903V131.524H203.653V137.516H206.523V131.524H208.273ZM216.548 133.008H213.93V139H212.18V133.008H209.548V131.524H216.548V133.008ZM221.962 131.44C222.69 131.44 223.338 131.599 223.908 131.916C224.486 132.233 224.939 132.681 225.266 133.26C225.592 133.839 225.756 134.506 225.756 135.262C225.756 136.018 225.592 136.69 225.266 137.278C224.939 137.857 224.486 138.305 223.908 138.622C223.338 138.939 222.69 139.098 221.962 139.098C220.954 139.098 220.156 138.762 219.568 138.09V141.716H217.818V131.524H219.484V132.504C219.773 132.149 220.128 131.883 220.548 131.706C220.977 131.529 221.448 131.44 221.962 131.44ZM221.766 137.6C222.41 137.6 222.937 137.385 223.348 136.956C223.768 136.527 223.978 135.962 223.978 135.262C223.978 134.562 223.768 133.997 223.348 133.568C222.937 133.139 222.41 132.924 221.766 132.924C221.346 132.924 220.968 133.022 220.632 133.218C220.296 133.405 220.03 133.675 219.834 134.03C219.638 134.385 219.54 134.795 219.54 135.262C219.54 135.729 219.638 136.139 219.834 136.494C220.03 136.849 220.296 137.124 220.632 137.32C220.968 137.507 221.346 137.6 221.766 137.6ZM230.188 131.44C231.289 131.44 232.129 131.706 232.708 132.238C233.296 132.761 233.59 133.554 233.59 134.618V139H231.938V138.09C231.723 138.417 231.415 138.669 231.014 138.846C230.622 139.014 230.146 139.098 229.586 139.098C229.026 139.098 228.536 139.005 228.116 138.818C227.696 138.622 227.369 138.356 227.136 138.02C226.912 137.675 226.8 137.287 226.8 136.858C226.8 136.186 227.047 135.649 227.542 135.248C228.046 134.837 228.834 134.632 229.908 134.632H231.84V134.52C231.84 133.997 231.681 133.596 231.364 133.316C231.056 133.036 230.594 132.896 229.978 132.896C229.558 132.896 229.142 132.961 228.732 133.092C228.33 133.223 227.99 133.405 227.71 133.638L227.024 132.364C227.416 132.065 227.887 131.837 228.438 131.678C228.988 131.519 229.572 131.44 230.188 131.44ZM229.95 137.824C230.388 137.824 230.776 137.726 231.112 137.53C231.457 137.325 231.7 137.035 231.84 136.662V135.794H230.034C229.026 135.794 228.522 136.125 228.522 136.788C228.522 137.105 228.648 137.357 228.9 137.544C229.152 137.731 229.502 137.824 229.95 137.824ZM245.639 135.248C245.639 136.405 245.252 137.315 244.477 137.978C243.712 138.641 242.615 139.019 241.187 139.112V141.716H239.535V139.126C238.107 139.033 237.01 138.655 236.245 137.992C235.48 137.329 235.097 136.415 235.097 135.248C235.097 134.091 235.48 133.19 236.245 132.546C237.01 131.893 238.107 131.519 239.535 131.426V128.612H241.187V131.426C242.615 131.519 243.712 131.893 244.477 132.546C245.252 133.199 245.639 134.1 245.639 135.248ZM236.819 135.248C236.819 135.967 237.038 136.527 237.477 136.928C237.925 137.329 238.611 137.572 239.535 137.656V132.91C238.611 132.985 237.925 133.218 237.477 133.61C237.038 134.002 236.819 134.548 236.819 135.248ZM241.187 137.656C243.016 137.488 243.931 136.685 243.931 135.248C243.931 134.539 243.702 133.993 243.245 133.61C242.797 133.218 242.111 132.985 241.187 132.91V137.656ZM250.975 133.988C251.927 133.988 252.655 134.203 253.159 134.632C253.663 135.061 253.915 135.668 253.915 136.452C253.915 137.273 253.635 137.908 253.075 138.356C252.525 138.804 251.741 139.023 250.723 139.014L247.335 139V131.524H249.085V133.974L250.975 133.988ZM254.881 131.524H256.631V139H254.881V131.524ZM250.569 137.726C251.083 137.735 251.475 137.628 251.745 137.404C252.016 137.18 252.151 136.853 252.151 136.424C252.151 136.004 252.021 135.696 251.759 135.5C251.498 135.304 251.101 135.201 250.569 135.192L249.085 135.178V137.712L250.569 137.726ZM122.719 147.2V157H120.927V148.74H115.845V157H114.053V147.2H122.719ZM135.103 155.46V159.086H133.423V157H125.905V159.086H124.211L124.225 155.46H124.645C125.261 155.432 125.69 154.979 125.933 154.102C126.185 153.215 126.339 151.951 126.395 150.308L126.507 147.2H133.689V155.46H135.103ZM127.991 150.476C127.944 151.745 127.841 152.805 127.683 153.654C127.524 154.494 127.272 155.096 126.927 155.46H131.897V148.74H128.061L127.991 150.476ZM146.532 155.46V159.086H144.852V157H137.334V159.086H135.64L135.654 155.46H136.074C136.69 155.432 137.12 154.979 137.362 154.102C137.614 153.215 137.768 151.951 137.824 150.308L137.936 147.2H145.118V155.46H146.532ZM139.42 150.476C139.374 151.745 139.271 152.805 139.112 153.654C138.954 154.494 138.702 155.096 138.356 155.46H143.326V148.74H139.49L139.42 150.476ZM155.251 157.098C154.495 157.098 153.814 156.935 153.207 156.608C152.6 156.281 152.124 155.829 151.779 155.25C151.443 154.662 151.275 153.999 151.275 153.262C151.275 152.525 151.443 151.867 151.779 151.288C152.124 150.709 152.6 150.257 153.207 149.93C153.814 149.603 154.495 149.44 155.251 149.44C156.016 149.44 156.702 149.603 157.309 149.93C157.916 150.257 158.387 150.709 158.723 151.288C159.068 151.867 159.241 152.525 159.241 153.262C159.241 153.999 159.068 154.662 158.723 155.25C158.387 155.829 157.916 156.281 157.309 156.608C156.702 156.935 156.016 157.098 155.251 157.098ZM155.251 155.6C155.895 155.6 156.427 155.385 156.847 154.956C157.267 154.527 157.477 153.962 157.477 153.262C157.477 152.562 157.267 151.997 156.847 151.568C156.427 151.139 155.895 150.924 155.251 150.924C154.607 150.924 154.075 151.139 153.655 151.568C153.244 151.997 153.039 152.562 153.039 153.262C153.039 153.962 153.244 154.527 153.655 154.956C154.075 155.385 154.607 155.6 155.251 155.6ZM160.97 149.524H162.72V152.562H166.486V149.524H168.236V157H166.486V154.046H162.72V157H160.97V149.524ZM177.357 149.524V157H175.607V151.008H172.807L172.737 152.492C172.691 153.481 172.597 154.312 172.457 154.984C172.327 155.647 172.098 156.174 171.771 156.566C171.454 156.949 171.015 157.14 170.455 157.14C170.194 157.14 169.872 157.089 169.489 156.986L169.573 155.516C169.704 155.544 169.816 155.558 169.909 155.558C170.264 155.558 170.53 155.418 170.707 155.138C170.885 154.849 170.997 154.508 171.043 154.116C171.099 153.715 171.146 153.145 171.183 152.408L171.309 149.524H177.357ZM182.5 149.44C183.601 149.44 184.441 149.706 185.02 150.238C185.608 150.761 185.902 151.554 185.902 152.618V157H184.25V156.09C184.035 156.417 183.727 156.669 183.326 156.846C182.934 157.014 182.458 157.098 181.898 157.098C181.338 157.098 180.848 157.005 180.428 156.818C180.008 156.622 179.681 156.356 179.448 156.02C179.224 155.675 179.112 155.287 179.112 154.858C179.112 154.186 179.359 153.649 179.854 153.248C180.358 152.837 181.147 152.632 182.22 152.632H184.152V152.52C184.152 151.997 183.993 151.596 183.676 151.316C183.368 151.036 182.906 150.896 182.29 150.896C181.87 150.896 181.455 150.961 181.044 151.092C180.643 151.223 180.302 151.405 180.022 151.638L179.336 150.364C179.728 150.065 180.199 149.837 180.75 149.678C181.301 149.519 181.884 149.44 182.5 149.44ZM182.262 155.824C182.701 155.824 183.088 155.726 183.424 155.53C183.769 155.325 184.012 155.035 184.152 154.662V153.794H182.346C181.338 153.794 180.834 154.125 180.834 154.788C180.834 155.105 180.96 155.357 181.212 155.544C181.464 155.731 181.814 155.824 182.262 155.824ZM188.068 149.524H189.818V154.452L193.948 149.524H195.544V157H193.794V152.072L189.678 157H188.068V149.524ZM191.694 148.642C190.938 148.642 190.359 148.469 189.958 148.124C189.566 147.769 189.365 147.256 189.356 146.584H190.518C190.527 146.92 190.63 147.186 190.826 147.382C191.031 147.578 191.316 147.676 191.68 147.676C192.034 147.676 192.314 147.578 192.52 147.382C192.734 147.186 192.846 146.92 192.856 146.584H194.046C194.036 147.256 193.831 147.769 193.43 148.124C193.028 148.469 192.45 148.642 191.694 148.642ZM197.898 149.524H199.648V152.562H203.414V149.524H205.164V157H203.414V154.046H199.648V157H197.898V149.524Z" fill="white"/>
<path d="M126.152 212.8V214.192L121.8 224H119.576L123.784 214.56H119.384V216.464H117.448V212.8H126.152ZM136.388 224.112C135.503 224.112 134.708 223.925 134.004 223.552C133.3 223.179 132.751 222.661 132.356 222C131.962 221.328 131.764 220.571 131.764 219.728C131.764 218.885 131.962 218.133 132.356 217.472C132.751 216.811 133.295 216.293 133.988 215.92C134.692 215.547 135.492 215.36 136.388 215.36C137.231 215.36 137.967 215.531 138.596 215.872C139.236 216.213 139.716 216.704 140.036 217.344L138.5 218.24C138.255 217.845 137.946 217.552 137.572 217.36C137.21 217.157 136.81 217.056 136.372 217.056C135.626 217.056 135.007 217.301 134.516 217.792C134.026 218.272 133.78 218.917 133.78 219.728C133.78 220.539 134.02 221.189 134.5 221.68C134.991 222.16 135.615 222.4 136.372 222.4C136.81 222.4 137.21 222.304 137.572 222.112C137.946 221.909 138.255 221.611 138.5 221.216L140.036 222.112C139.706 222.752 139.22 223.248 138.58 223.6C137.951 223.941 137.22 224.112 136.388 224.112ZM145.48 224.112C144.616 224.112 143.837 223.925 143.144 223.552C142.451 223.179 141.907 222.661 141.512 222C141.128 221.328 140.936 220.571 140.936 219.728C140.936 218.885 141.128 218.133 141.512 217.472C141.907 216.811 142.451 216.293 143.144 215.92C143.837 215.547 144.616 215.36 145.48 215.36C146.355 215.36 147.139 215.547 147.832 215.92C148.525 216.293 149.064 216.811 149.448 217.472C149.843 218.133 150.04 218.885 150.04 219.728C150.04 220.571 149.843 221.328 149.448 222C149.064 222.661 148.525 223.179 147.832 223.552C147.139 223.925 146.355 224.112 145.48 224.112ZM145.48 222.4C146.216 222.4 146.824 222.155 147.304 221.664C147.784 221.173 148.024 220.528 148.024 219.728C148.024 218.928 147.784 218.283 147.304 217.792C146.824 217.301 146.216 217.056 145.48 217.056C144.744 217.056 144.136 217.301 143.656 217.792C143.187 218.283 142.952 218.928 142.952 219.728C142.952 220.528 143.187 221.173 143.656 221.664C144.136 222.155 144.744 222.4 145.48 222.4ZM160.416 224V218.336L157.536 223.104H156.672L153.84 218.32V224H152.016V215.456H154.112L157.152 220.8L160.336 215.456H162.208L162.224 224H160.416ZM168.363 210.528H170.155L164.875 225.6H163.082L168.363 210.528ZM178.197 224V218.336L175.317 223.104H174.453L171.621 218.32V224H169.797V215.456H171.893L174.933 220.8L178.117 215.456H179.989L180.005 224H178.197ZM190.688 219.776C190.688 219.915 190.677 220.112 190.656 220.368H183.952C184.069 220.997 184.373 221.499 184.864 221.872C185.365 222.235 185.984 222.416 186.72 222.416C187.658 222.416 188.432 222.107 189.04 221.488L190.112 222.72C189.728 223.179 189.242 223.525 188.656 223.76C188.069 223.995 187.408 224.112 186.672 224.112C185.733 224.112 184.906 223.925 184.192 223.552C183.477 223.179 182.922 222.661 182.528 222C182.144 221.328 181.952 220.571 181.952 219.728C181.952 218.896 182.138 218.149 182.512 217.488C182.896 216.816 183.424 216.293 184.096 215.92C184.768 215.547 185.525 215.36 186.368 215.36C187.2 215.36 187.941 215.547 188.592 215.92C189.253 216.283 189.765 216.8 190.128 217.472C190.501 218.133 190.688 218.901 190.688 219.776ZM186.368 216.96C185.728 216.96 185.184 217.152 184.736 217.536C184.298 217.909 184.032 218.411 183.936 219.04H188.784C188.698 218.421 188.437 217.92 188 217.536C187.562 217.152 187.018 216.96 186.368 216.96ZM196.763 224.112C195.878 224.112 195.083 223.925 194.379 223.552C193.675 223.179 193.126 222.661 192.731 222C192.337 221.328 192.139 220.571 192.139 219.728C192.139 218.885 192.337 218.133 192.731 217.472C193.126 216.811 193.67 216.293 194.363 215.92C195.067 215.547 195.867 215.36 196.763 215.36C197.606 215.36 198.342 215.531 198.971 215.872C199.611 216.213 200.091 216.704 200.411 217.344L198.875 218.24C198.63 217.845 198.321 217.552 197.947 217.36C197.585 217.157 197.185 217.056 196.747 217.056C196.001 217.056 195.382 217.301 194.891 217.792C194.401 218.272 194.155 218.917 194.155 219.728C194.155 220.539 194.395 221.189 194.875 221.68C195.366 222.16 195.99 222.4 196.747 222.4C197.185 222.4 197.585 222.304 197.947 222.112C198.321 221.909 198.63 221.611 198.875 221.216L200.411 222.112C200.081 222.752 199.595 223.248 198.955 223.6C198.326 223.941 197.595 224.112 196.763 224.112Z" fill="white"/>
<path d="M121.488 188.944L124.104 190.36L122.928 192.328L120.288 190.768L120.336 193.672H118.08L118.104 190.744L115.464 192.328L114.312 190.36L116.928 188.944L114.312 187.504L115.464 185.536L118.104 187.12L118.08 184.192H120.336L120.288 187.12L122.928 185.536L124.104 187.504L121.488 188.944ZM132.636 202.288C131.244 202.288 130.004 201.944 128.916 201.256C127.828 200.568 126.972 199.576 126.348 198.28C125.74 196.968 125.436 195.408 125.436 193.6C125.436 191.792 125.74 190.24 126.348 188.944C126.972 187.632 127.828 186.632 128.916 185.944C130.004 185.256 131.244 184.912 132.636 184.912C134.028 184.912 135.268 185.256 136.356 185.944C137.444 186.632 138.292 187.632 138.9 188.944C139.524 190.24 139.836 191.792 139.836 193.6C139.836 195.408 139.524 196.968 138.9 198.28C138.292 199.576 137.444 200.568 136.356 201.256C135.268 201.944 134.028 202.288 132.636 202.288ZM132.636 199C133.66 199 134.46 198.56 135.036 197.68C135.628 196.8 135.924 195.44 135.924 193.6C135.924 191.76 135.628 190.4 135.036 189.52C134.46 188.64 133.66 188.2 132.636 188.2C131.628 188.2 130.828 188.64 130.236 189.52C129.66 190.4 129.372 191.76 129.372 193.6C129.372 195.44 129.66 196.8 130.236 197.68C130.828 198.56 131.628 199 132.636 199ZM147.629 184.912C149.981 184.912 151.821 185.632 153.149 187.072C154.477 188.496 155.141 190.552 155.141 193.24C155.141 195.144 154.781 196.776 154.061 198.136C153.357 199.496 152.357 200.528 151.061 201.232C149.765 201.936 148.269 202.288 146.573 202.288C145.677 202.288 144.821 202.192 144.005 202C143.189 201.792 142.493 201.504 141.917 201.136L143.357 198.28C144.173 198.84 145.221 199.12 146.501 199.12C147.925 199.12 149.053 198.704 149.885 197.872C150.717 197.024 151.165 195.808 151.229 194.224C150.221 195.232 148.829 195.736 147.053 195.736C145.981 195.736 145.005 195.52 144.125 195.088C143.245 194.656 142.549 194.048 142.037 193.264C141.525 192.464 141.269 191.544 141.269 190.504C141.269 189.384 141.549 188.4 142.109 187.552C142.669 186.704 143.429 186.056 144.389 185.608C145.365 185.144 146.445 184.912 147.629 184.912ZM147.917 192.832C148.765 192.832 149.453 192.6 149.981 192.136C150.525 191.656 150.797 191.048 150.797 190.312C150.797 189.576 150.533 188.976 150.005 188.512C149.493 188.048 148.781 187.816 147.869 187.816C147.037 187.816 146.357 188.04 145.829 188.488C145.317 188.936 145.061 189.544 145.061 190.312C145.061 191.08 145.317 191.696 145.829 192.16C146.357 192.608 147.053 192.832 147.917 192.832ZM164.206 202.288C162.814 202.288 161.574 201.944 160.486 201.256C159.398 200.568 158.542 199.576 157.918 198.28C157.31 196.968 157.006 195.408 157.006 193.6C157.006 191.792 157.31 190.24 157.918 188.944C158.542 187.632 159.398 186.632 160.486 185.944C161.574 185.256 162.814 184.912 164.206 184.912C165.598 184.912 166.838 185.256 167.926 185.944C169.014 186.632 169.862 187.632 170.47 188.944C171.094 190.24 171.406 191.792 171.406 193.6C171.406 195.408 171.094 196.968 170.47 198.28C169.862 199.576 169.014 200.568 167.926 201.256C166.838 201.944 165.598 202.288 164.206 202.288ZM164.206 199C165.23 199 166.03 198.56 166.606 197.68C167.198 196.8 167.494 195.44 167.494 193.6C167.494 191.76 167.198 190.4 166.606 189.52C166.03 188.64 165.23 188.2 164.206 188.2C163.198 188.2 162.398 188.64 161.806 189.52C161.23 190.4 160.942 191.76 160.942 193.6C160.942 195.44 161.23 196.8 161.806 197.68C162.398 198.56 163.198 199 164.206 199ZM179.199 184.912C181.551 184.912 183.391 185.632 184.719 187.072C186.047 188.496 186.711 190.552 186.711 193.24C186.711 195.144 186.351 196.776 185.631 198.136C184.927 199.496 183.927 200.528 182.631 201.232C181.335 201.936 179.839 202.288 178.143 202.288C177.247 202.288 176.391 202.192 175.575 202C174.759 201.792 174.063 201.504 173.487 201.136L174.927 198.28C175.743 198.84 176.791 199.12 178.071 199.12C179.495 199.12 180.623 198.704 181.455 197.872C182.287 197.024 182.735 195.808 182.799 194.224C181.791 195.232 180.399 195.736 178.623 195.736C177.551 195.736 176.575 195.52 175.695 195.088C174.815 194.656 174.119 194.048 173.607 193.264C173.095 192.464 172.839 191.544 172.839 190.504C172.839 189.384 173.119 188.4 173.679 187.552C174.239 186.704 174.999 186.056 175.959 185.608C176.935 185.144 178.015 184.912 179.199 184.912ZM179.487 192.832C180.335 192.832 181.023 192.6 181.551 192.136C182.095 191.656 182.367 191.048 182.367 190.312C182.367 189.576 182.103 188.976 181.575 188.512C181.063 188.048 180.351 187.816 179.439 187.816C178.607 187.816 177.927 188.04 177.399 188.488C176.887 188.936 176.631 189.544 176.631 190.312C176.631 191.08 176.887 191.696 177.399 192.16C177.927 192.608 178.623 192.832 179.487 192.832ZM200.505 195.544H203.625V198.16H200.193L199.713 202H197.001L197.481 198.16H193.953L193.473 202H190.785L191.265 198.16H188.121V195.544H191.577L192.081 191.656H188.937V189.04H192.393L192.873 185.2H195.561L195.081 189.04H198.609L199.089 185.2H201.777L201.297 189.04H204.417L204.441 191.656H200.985L200.505 195.544ZM197.793 195.544L198.297 191.656H194.769L194.265 195.544H197.793Z" fill="white"/>
<path d="M53.5 41.5056L53.5 35.2791C53.5 33.6714 54.3577 32.1858 55.75 31.3819L61.1423 28.2687C62.5346 27.4648 64.25 27.4648 65.6423 28.2687L71.0346 31.3819C72.4269 32.1858 73.2846 33.6714 73.2846 35.2791L73.2846 41.5055C73.2846 43.1132 72.4269 44.5988 71.0346 45.4027L65.6423 48.5159C64.25 49.3198 62.5346 49.3198 61.1423 48.5159L55.75 45.4027C54.3577 44.5988 53.5 43.1132 53.5 41.5056Z" stroke="white" stroke-opacity="0.5"/>
<path d="M248.5 221.506L248.5 215.279C248.5 213.671 249.358 212.186 250.75 211.382L256.142 208.269C257.535 207.465 259.25 207.465 260.642 208.269L266.035 211.382C267.427 212.186 268.285 213.671 268.285 215.279L268.285 221.506C268.285 223.113 267.427 224.599 266.035 225.403L260.642 228.516C259.25 229.32 257.535 229.32 256.142 228.516L250.75 225.403C249.358 224.599 248.5 223.113 248.5 221.506Z" stroke="white" stroke-opacity="0.5"/>
<path d="M34.5637 153.352L63.5218 170.071C66.6158 171.858 68.5218 175.159 68.5218 178.732L68.5218 206.396C68.5218 209.969 66.6158 213.27 63.5218 215.056L34.5637 231.775" stroke="white" stroke-opacity="0.5"/>
<path d="M282.937 93.4228L253.979 76.7039C250.885 74.9175 248.979 71.6163 248.979 68.0436L248.979 40.3792C248.979 36.8066 250.885 33.5053 253.979 31.719L282.937 15" stroke="white" stroke-opacity="0.5"/>
</svg>
