<svg width="728" height="132" viewBox="0 0 728 132" fill="none" xmlns="http://www.w3.org/2000/svg">
<rect y="4" width="728" height="90" fill="#005395"/>
<path d="M32.48 37H30.4224V28.708H26.437V37H24.3862V27.0469H32.48V37ZM40.813 33.3701C40.813 34.5094 40.5532 35.4232 40.0337 36.1113C39.5187 36.7949 38.8215 37.1367 37.9419 37.1367C37.1945 37.1367 36.5907 36.877 36.1304 36.3574V39.8438H34.1548V29.6035H35.9868L36.0552 30.3281C36.5337 29.7539 37.158 29.4668 37.9282 29.4668C38.8397 29.4668 39.5483 29.804 40.0542 30.4785C40.5601 31.153 40.813 32.0827 40.813 33.2676V33.3701ZM38.8374 33.2266C38.8374 32.5384 38.7144 32.0075 38.4683 31.6338C38.2267 31.2601 37.8735 31.0732 37.4087 31.0732C36.7889 31.0732 36.3628 31.3102 36.1304 31.7842V34.8125C36.3719 35.3001 36.8026 35.5439 37.4224 35.5439C38.3657 35.5439 38.8374 34.7715 38.8374 33.2266ZM41.7358 33.2334C41.7358 32.4997 41.8771 31.8457 42.1597 31.2715C42.4422 30.6973 42.8478 30.2529 43.3765 29.9385C43.9097 29.624 44.5272 29.4668 45.229 29.4668C46.2271 29.4668 47.0405 29.7721 47.6694 30.3828C48.3029 30.9935 48.6561 31.8229 48.729 32.8711L48.7427 33.377C48.7427 34.5117 48.4259 35.4232 47.7925 36.1113C47.159 36.7949 46.3091 37.1367 45.2427 37.1367C44.1763 37.1367 43.3241 36.7949 42.686 36.1113C42.0526 35.4277 41.7358 34.498 41.7358 33.3223V33.2334ZM43.7114 33.377C43.7114 34.0788 43.8436 34.6165 44.1079 34.9902C44.3722 35.3594 44.7505 35.5439 45.2427 35.5439C45.7212 35.5439 46.0949 35.3617 46.3638 34.9971C46.6326 34.6279 46.7671 34.04 46.7671 33.2334C46.7671 32.5452 46.6326 32.012 46.3638 31.6338C46.0949 31.2555 45.7166 31.0664 45.229 31.0664C44.7459 31.0664 44.3722 31.2555 44.1079 31.6338C43.8436 32.0075 43.7114 32.5885 43.7114 33.377ZM50.0894 37V29.6035H53.1792C54.1864 29.6035 54.9588 29.7812 55.4966 30.1367C56.0343 30.4922 56.3032 31.0026 56.3032 31.668C56.3032 32.0098 56.1893 32.3174 55.9614 32.5908C55.7381 32.8597 55.41 33.0671 54.9771 33.2129C55.5057 33.3132 55.9204 33.5114 56.2212 33.8076C56.5265 34.0993 56.6792 34.4593 56.6792 34.8877C56.6792 35.5758 56.4194 36.0999 55.8999 36.46C55.3849 36.82 54.6353 37 53.6509 37H50.0894ZM52.0649 33.9307V35.4209H53.6577C54.355 35.4209 54.7036 35.1771 54.7036 34.6895C54.7036 34.1927 54.3709 33.9398 53.7056 33.9307H52.0649ZM52.0649 32.6045H53.2886C53.9813 32.5954 54.3276 32.3721 54.3276 31.9346C54.3276 31.6657 54.2319 31.4743 54.0405 31.3604C53.8537 31.2464 53.5666 31.1895 53.1792 31.1895H52.0649V32.6045ZM61.2935 37.1367C60.2088 37.1367 59.3247 36.804 58.6411 36.1387C57.9621 35.4733 57.6226 34.5869 57.6226 33.4795V33.2881C57.6226 32.5452 57.7661 31.8822 58.0532 31.2988C58.3403 30.7109 58.7459 30.2598 59.27 29.9453C59.7987 29.6263 60.4002 29.4668 61.0747 29.4668C62.0864 29.4668 62.8817 29.7858 63.4604 30.4238C64.0438 31.0618 64.3354 31.9665 64.3354 33.1377V33.9443H59.6255C59.6893 34.4274 59.8807 34.8148 60.1997 35.1064C60.5233 35.3981 60.9312 35.5439 61.4233 35.5439C62.1844 35.5439 62.7791 35.2682 63.2075 34.7168L64.1782 35.8037C63.882 36.223 63.481 36.5511 62.9751 36.7881C62.4692 37.0205 61.9087 37.1367 61.2935 37.1367ZM61.0679 31.0664C60.6759 31.0664 60.3569 31.1986 60.1108 31.4629C59.8693 31.7272 59.7144 32.1055 59.646 32.5977H62.394V32.4404C62.3849 32.0029 62.2664 31.6657 62.0386 31.4287C61.8107 31.1872 61.4871 31.0664 61.0679 31.0664ZM72.1216 33.3701C72.1216 34.5094 71.8618 35.4232 71.3423 36.1113C70.8273 36.7949 70.13 37.1367 69.2505 37.1367C68.5031 37.1367 67.8993 36.877 67.439 36.3574V39.8438H65.4634V29.6035H67.2954L67.3638 30.3281C67.8423 29.7539 68.4666 29.4668 69.2368 29.4668C70.1483 29.4668 70.8569 29.804 71.3628 30.4785C71.8687 31.153 72.1216 32.0827 72.1216 33.2676V33.3701ZM70.146 33.2266C70.146 32.5384 70.0229 32.0075 69.7769 31.6338C69.5353 31.2601 69.1821 31.0732 68.7173 31.0732C68.0975 31.0732 67.6714 31.3102 67.439 31.7842V34.8125C67.6805 35.3001 68.1112 35.5439 68.731 35.5439C69.6743 35.5439 70.146 34.7715 70.146 33.2266ZM79.5181 29.6035V37H77.5493V34.4434H76.2983L74.8765 37H72.8735L74.4868 34.1084C74.0448 33.9033 73.703 33.6253 73.4614 33.2744C73.2244 32.9235 73.106 32.5247 73.106 32.0781C73.106 31.3626 73.3817 30.777 73.9331 30.3213C74.4891 29.861 75.2319 29.6217 76.1616 29.6035H79.5181ZM76.1958 33.0625H77.5493V31.1895H76.2642C75.9132 31.1895 75.6284 31.2829 75.4097 31.4697C75.1909 31.652 75.0815 31.8753 75.0815 32.1396C75.0815 32.404 75.1864 32.6227 75.396 32.7959C75.6056 32.9691 75.8722 33.0579 76.1958 33.0625ZM85.6431 29.6035H87.6187V37H85.6431V32.4336L83.1685 37H81.186V29.6035H83.1685V34.1631L85.6431 29.6035ZM86.8052 26.6025C86.8052 27.2087 86.5864 27.6986 86.1489 28.0723C85.716 28.446 85.1463 28.6328 84.4399 28.6328C83.7336 28.6328 83.1616 28.4482 82.7241 28.0791C82.2912 27.71 82.0747 27.2178 82.0747 26.6025H83.4761C83.4761 26.8896 83.5604 27.113 83.729 27.2725C83.9022 27.4274 84.1392 27.5049 84.4399 27.5049C84.7362 27.5049 84.9686 27.4274 85.1372 27.2725C85.3058 27.113 85.3901 26.8896 85.3901 26.6025H86.8052ZM95.2681 31.1895H92.896V37H90.9136V31.1895H88.5825V29.6035H95.2681V31.1895ZM99.2329 37.1367C98.1483 37.1367 97.2642 36.804 96.5806 36.1387C95.9015 35.4733 95.562 34.5869 95.562 33.4795V33.2881C95.562 32.5452 95.7056 31.8822 95.9927 31.2988C96.2798 30.7109 96.6854 30.2598 97.2095 29.9453C97.7381 29.6263 98.3397 29.4668 99.0142 29.4668C100.026 29.4668 100.821 29.7858 101.4 30.4238C101.983 31.0618 102.275 31.9665 102.275 33.1377V33.9443H97.5649C97.6287 34.4274 97.8201 34.8148 98.1392 35.1064C98.4627 35.3981 98.8706 35.5439 99.3628 35.5439C100.124 35.5439 100.719 35.2682 101.147 34.7168L102.118 35.8037C101.821 36.223 101.42 36.5511 100.915 36.7881C100.409 37.0205 99.8481 37.1367 99.2329 37.1367ZM99.0073 31.0664C98.6154 31.0664 98.2964 31.1986 98.0503 31.4629C97.8088 31.7272 97.6538 32.1055 97.5854 32.5977H100.333V32.4404C100.324 32.0029 100.206 31.6657 99.978 31.4287C99.7502 31.1872 99.4266 31.0664 99.0073 31.0664ZM27.3188 51.5439C27.6834 51.5439 27.9797 51.4437 28.2075 51.2432C28.4354 51.0426 28.5539 50.776 28.563 50.4434H30.4155C30.411 50.9447 30.2743 51.4049 30.0054 51.8242C29.7365 52.2389 29.3674 52.5625 28.8979 52.7949C28.4331 53.0228 27.9181 53.1367 27.353 53.1367C26.2957 53.1367 25.4618 52.8018 24.8511 52.1318C24.2404 51.4574 23.9351 50.5277 23.9351 49.3428V49.2129C23.9351 48.0736 24.2381 47.1644 24.8442 46.4854C25.4504 45.8063 26.2821 45.4668 27.3394 45.4668C28.2645 45.4668 29.005 45.7311 29.561 46.2598C30.1216 46.7839 30.4064 47.4834 30.4155 48.3584H28.563C28.5539 47.9756 28.4354 47.6657 28.2075 47.4287C27.9797 47.1872 27.6789 47.0664 27.3052 47.0664C26.8449 47.0664 26.4963 47.235 26.2593 47.5723C26.0269 47.9049 25.9106 48.4473 25.9106 49.1992V49.4043C25.9106 50.1654 26.0269 50.7122 26.2593 51.0449C26.4917 51.3776 26.8449 51.5439 27.3188 51.5439ZM31.6733 53V45.6035H34.7632C35.7703 45.6035 36.5428 45.7812 37.0806 46.1367C37.6183 46.4922 37.8872 47.0026 37.8872 47.668C37.8872 48.0098 37.7733 48.3174 37.5454 48.5908C37.3221 48.8597 36.994 49.0671 36.561 49.2129C37.0897 49.3132 37.5044 49.5114 37.8052 49.8076C38.1105 50.0993 38.2632 50.4593 38.2632 50.8877C38.2632 51.5758 38.0034 52.0999 37.4839 52.46C36.9689 52.82 36.2192 53 35.2349 53H31.6733ZM33.6489 49.9307V51.4209H35.2417C35.939 51.4209 36.2876 51.1771 36.2876 50.6895C36.2876 50.1927 35.9549 49.9398 35.2896 49.9307H33.6489ZM33.6489 48.6045H34.8726C35.5653 48.5954 35.9116 48.3721 35.9116 47.9346C35.9116 47.6657 35.8159 47.4743 35.6245 47.3604C35.4377 47.2464 35.1506 47.1895 34.7632 47.1895H33.6489V48.6045ZM39.1655 49.2334C39.1655 48.4997 39.3068 47.8457 39.5894 47.2715C39.8719 46.6973 40.2775 46.2529 40.8062 45.9385C41.3394 45.624 41.9569 45.4668 42.6587 45.4668C43.6567 45.4668 44.4702 45.7721 45.0991 46.3828C45.7326 46.9935 46.0858 47.8229 46.1587 48.8711L46.1724 49.377C46.1724 50.5117 45.8556 51.4232 45.2222 52.1113C44.5887 52.7949 43.7388 53.1367 42.6724 53.1367C41.606 53.1367 40.7537 52.7949 40.1157 52.1113C39.4823 51.4277 39.1655 50.498 39.1655 49.3223V49.2334ZM41.1411 49.377C41.1411 50.0788 41.2733 50.6165 41.5376 50.9902C41.8019 51.3594 42.1802 51.5439 42.6724 51.5439C43.1509 51.5439 43.5246 51.3617 43.7935 50.9971C44.0623 50.6279 44.1968 50.04 44.1968 49.2334C44.1968 48.5452 44.0623 48.012 43.7935 47.6338C43.5246 47.2555 43.1463 47.0664 42.6587 47.0664C42.1756 47.0664 41.8019 47.2555 41.5376 47.6338C41.2733 48.0075 41.1411 48.5885 41.1411 49.377ZM51.8462 45.6035H53.8218V53H51.8462V48.4336L49.3716 53H47.3892V45.6035H49.3716V50.1631L51.8462 45.6035ZM60.7944 45.6035V51.4072H62.8247V45.6035H64.8071V51.4072H66.8374V45.6035H68.813V53H58.8188V45.6035H60.7944ZM76.5376 47.1895H74.1655V53H72.1831V47.1895H69.8521V45.6035H76.5376V47.1895ZM84.1938 49.3701C84.1938 50.5094 83.9341 51.4232 83.4146 52.1113C82.8996 52.7949 82.2023 53.1367 81.3228 53.1367C80.5754 53.1367 79.9715 52.877 79.5112 52.3574V55.8438H77.5356V45.6035H79.3677L79.436 46.3281C79.9146 45.7539 80.5389 45.4668 81.3091 45.4668C82.2205 45.4668 82.9292 45.804 83.4351 46.4785C83.9409 47.153 84.1938 48.0827 84.1938 49.2676V49.3701ZM82.2183 49.2266C82.2183 48.5384 82.0952 48.0075 81.8491 47.6338C81.6076 47.2601 81.2544 47.0732 80.7896 47.0732C80.1698 47.0732 79.7437 47.3102 79.5112 47.7842V50.8125C79.7528 51.3001 80.1834 51.5439 80.8032 51.5439C81.7466 51.5439 82.2183 50.7715 82.2183 49.2266ZM89.7104 53C89.6193 52.8223 89.5532 52.6012 89.5122 52.3369C89.0337 52.8701 88.4116 53.1367 87.646 53.1367C86.9214 53.1367 86.3198 52.9271 85.8413 52.5078C85.3674 52.0885 85.1304 51.5599 85.1304 50.9219C85.1304 50.138 85.4198 49.5365 85.9985 49.1172C86.5819 48.6979 87.4227 48.486 88.521 48.4814H89.4302V48.0576C89.4302 47.7158 89.3413 47.4424 89.1636 47.2373C88.9904 47.0322 88.7147 46.9297 88.3364 46.9297C88.0037 46.9297 87.7417 47.0094 87.5503 47.1689C87.3634 47.3285 87.27 47.5472 87.27 47.8252H85.2944C85.2944 47.3968 85.4266 47.0003 85.6909 46.6357C85.9552 46.2712 86.3289 45.9863 86.812 45.7812C87.2951 45.5716 87.8374 45.4668 88.439 45.4668C89.3504 45.4668 90.0728 45.6969 90.606 46.1572C91.1437 46.613 91.4126 47.2555 91.4126 48.085V51.291C91.4172 51.9928 91.5151 52.5238 91.7065 52.8838V53H89.7104ZM88.0767 51.626C88.3683 51.626 88.6372 51.5622 88.8833 51.4346C89.1294 51.3024 89.3117 51.127 89.4302 50.9082V49.6367H88.6919C87.703 49.6367 87.1766 49.9785 87.1128 50.6621L87.106 50.7783C87.106 51.0244 87.1925 51.2272 87.3657 51.3867C87.5389 51.5462 87.7759 51.626 88.0767 51.626ZM92.6362 49.3564C92.6362 48.167 92.8778 47.2214 93.3608 46.5195C93.8485 45.8177 94.5184 45.4668 95.3706 45.4668C95.7033 45.4668 96.0063 45.5329 96.2798 45.665V42.5H98.2554V45.6719C98.5379 45.5352 98.8501 45.4668 99.1919 45.4668C100.049 45.4668 100.719 45.8177 101.202 46.5195C101.689 47.2168 101.933 48.2103 101.933 49.5C101.933 50.6165 101.689 51.5029 101.202 52.1592C100.714 52.8109 100.049 53.1367 99.2056 53.1367C98.8547 53.1367 98.5379 53.0729 98.2554 52.9453V55.8438H96.2798V52.9521C96.0063 53.0752 95.6987 53.1367 95.3569 53.1367C94.5594 53.1367 93.9191 52.8382 93.436 52.2412C92.953 51.6442 92.6886 50.8262 92.6431 49.7871L92.6362 49.3564ZM99.9507 49.3564C99.9507 48.6182 99.839 48.0531 99.6157 47.6611C99.3924 47.2646 99.078 47.0664 98.6724 47.0664C98.5448 47.0664 98.4058 47.0824 98.2554 47.1143V51.5098C98.383 51.5371 98.5265 51.5508 98.686 51.5508C99.4608 51.5508 99.88 50.9629 99.9438 49.7871L99.9507 49.3564ZM94.6118 49.5C94.6118 50.8626 95.0288 51.5439 95.8628 51.5439C96.036 51.5439 96.175 51.5326 96.2798 51.5098V47.1143C96.1294 47.0824 95.995 47.0664 95.8765 47.0664C95.4709 47.0664 95.1587 47.2601 94.9399 47.6475C94.7212 48.0303 94.6118 48.6478 94.6118 49.5ZM105.269 47.7705H106.684C107.322 47.7705 107.883 47.8776 108.366 48.0918C108.849 48.306 109.218 48.6136 109.473 49.0146C109.733 49.4111 109.863 49.8737 109.863 50.4023C109.863 51.1816 109.573 51.8105 108.995 52.2891C108.42 52.763 107.637 53 106.643 53H103.287V45.6035H105.269V47.7705ZM113.007 53H111.032V45.6035H113.007V53ZM105.269 49.3564V51.4209H106.67C107.062 51.4209 107.363 51.3298 107.573 51.1475C107.782 50.9652 107.887 50.7168 107.887 50.4023C107.887 50.0833 107.785 49.8304 107.58 49.6436C107.375 49.4521 107.071 49.3564 106.67 49.3564H105.269ZM126.474 53H124.417V44.708H120.431V53H118.38V43.0469H126.474V53ZM137.507 55.4473H135.614V53H129.612V55.4404H127.67L127.561 51.3525H128.313C128.719 51.0153 129.031 50.5208 129.25 49.8691C129.473 49.2129 129.623 48.4017 129.701 47.4355L129.988 43.0469H136.509V51.3525H137.671L137.507 55.4473ZM130.665 51.3525H134.458V44.708H131.936L131.765 47.3262C131.628 49.0807 131.262 50.4229 130.665 51.3525ZM148.117 55.4473H146.223V53H140.221V55.4404H138.28L138.17 51.3525H138.922C139.328 51.0153 139.64 50.5208 139.859 49.8691C140.082 49.2129 140.233 48.4017 140.31 47.4355L140.597 43.0469H147.119V51.3525H148.281L148.117 55.4473ZM141.274 51.3525H145.068V44.708H142.545L142.375 47.3262C142.238 49.0807 141.871 50.4229 141.274 51.3525ZM23.9351 65.2334C23.9351 64.4997 24.0763 63.8457 24.3589 63.2715C24.6414 62.6973 25.047 62.2529 25.5757 61.9385C26.1089 61.624 26.7264 61.4668 27.4282 61.4668C28.4263 61.4668 29.2397 61.7721 29.8687 62.3828C30.5021 62.9935 30.8553 63.8229 30.9282 64.8711L30.9419 65.377C30.9419 66.5117 30.6252 67.4232 29.9917 68.1113C29.3582 68.7949 28.5083 69.1367 27.4419 69.1367C26.3755 69.1367 25.5233 68.7949 24.8853 68.1113C24.2518 67.4277 23.9351 66.498 23.9351 65.3223V65.2334ZM25.9106 65.377C25.9106 66.0788 26.0428 66.6165 26.3071 66.9902C26.5715 67.3594 26.9497 67.5439 27.4419 67.5439C27.9204 67.5439 28.2941 67.3617 28.563 66.9971C28.8319 66.6279 28.9663 66.04 28.9663 65.2334C28.9663 64.5452 28.8319 64.012 28.563 63.6338C28.2941 63.2555 27.9159 63.0664 27.4282 63.0664C26.9451 63.0664 26.5715 63.2555 26.3071 63.6338C26.0428 64.0075 25.9106 64.5885 25.9106 65.377ZM38.5708 69H36.5884V66.1562H34.1343V69H32.1587V61.6035H34.1343V64.5703H36.5884V61.6035H38.5708V69ZM46.5347 61.6035V69H44.5591V63.2031H42.8159L42.6929 65.4863C42.6154 66.7031 42.3761 67.5895 41.9751 68.1455C41.5741 68.7015 40.9771 68.9863 40.1841 69H39.5142L39.4937 67.3936L39.7397 67.373C40.0952 67.3457 40.355 67.1361 40.519 66.7441C40.6831 66.3522 40.7856 65.6846 40.8267 64.7412L40.9634 61.6035H46.5347ZM52.3452 69C52.2541 68.8223 52.188 68.6012 52.147 68.3369C51.6685 68.8701 51.0464 69.1367 50.2808 69.1367C49.5562 69.1367 48.9546 68.9271 48.4761 68.5078C48.0021 68.0885 47.7651 67.5599 47.7651 66.9219C47.7651 66.138 48.0545 65.5365 48.6333 65.1172C49.2166 64.6979 50.0575 64.486 51.1558 64.4814H52.0649V64.0576C52.0649 63.7158 51.9761 63.4424 51.7983 63.2373C51.6252 63.0322 51.3494 62.9297 50.9712 62.9297C50.6385 62.9297 50.3765 63.0094 50.1851 63.1689C49.9982 63.3285 49.9048 63.5472 49.9048 63.8252H47.9292C47.9292 63.3968 48.0614 63.0003 48.3257 62.6357C48.59 62.2712 48.9637 61.9863 49.4468 61.7812C49.9299 61.5716 50.4722 61.4668 51.0737 61.4668C51.9852 61.4668 52.7075 61.6969 53.2407 62.1572C53.7785 62.613 54.0474 63.2555 54.0474 64.085V67.291C54.0519 67.9928 54.1499 68.5238 54.3413 68.8838V69H52.3452ZM50.7114 67.626C51.0031 67.626 51.272 67.5622 51.5181 67.4346C51.7642 67.3024 51.9465 67.127 52.0649 66.9082V65.6367H51.3267C50.3377 65.6367 49.8114 65.9785 49.7476 66.6621L49.7407 66.7783C49.7407 67.0244 49.8273 67.2272 50.0005 67.3867C50.1737 67.5462 50.4106 67.626 50.7114 67.626ZM60.022 61.6035H61.9976V69H60.022V64.4336L57.5474 69H55.5649V61.6035H57.5474V66.1631L60.022 61.6035ZM61.1841 58.6025C61.1841 59.2087 60.9653 59.6986 60.5278 60.0723C60.0949 60.446 59.5252 60.6328 58.8188 60.6328C58.1125 60.6328 57.5405 60.4482 57.103 60.0791C56.6701 59.71 56.4536 59.2178 56.4536 58.6025H57.855C57.855 58.8896 57.9393 59.113 58.1079 59.2725C58.2811 59.4274 58.5181 59.5049 58.8188 59.5049C59.1151 59.5049 59.3475 59.4274 59.5161 59.2725C59.6847 59.113 59.769 58.8896 59.769 58.6025H61.1841ZM69.9204 69H67.938V66.1562H65.4839V69H63.5083V61.6035H65.4839V64.5703H67.938V61.6035H69.9204V69Z" fill="white"/>
<path d="M321.63 42.4V55H305.448V42.4H307.752V53.02H312.396V42.4H314.7V53.02H319.326V42.4H321.63ZM333.522 52.084H327.222L325.98 55H323.568L329.238 42.4H331.542L337.23 55H334.782L333.522 52.084ZM332.748 50.248L330.372 44.74L328.014 50.248H332.748ZM339.988 42.4L342.958 46.612L345.928 42.4H348.664L344.434 48.448L349.006 55H346.234L342.958 50.41L339.7 55H337L341.554 48.538L337.288 42.4H339.988ZM349.618 53.02V57.682H347.458V55H346.234V53.02H349.618ZM356.335 42.4C357.427 42.4 358.375 42.58 359.179 42.94C359.995 43.3 360.619 43.816 361.051 44.488C361.483 45.16 361.699 45.958 361.699 46.882C361.699 47.794 361.483 48.592 361.051 49.276C360.619 49.948 359.995 50.464 359.179 50.824C358.375 51.184 357.427 51.364 356.335 51.364H353.491V55H351.151V42.4H356.335ZM356.227 49.384C357.247 49.384 358.021 49.168 358.549 48.736C359.077 48.304 359.341 47.686 359.341 46.882C359.341 46.078 359.077 45.46 358.549 45.028C358.021 44.596 357.247 44.38 356.227 44.38H353.491V49.384H356.227ZM363.93 42.4H366.234V51.346L373.002 42.4H375.18V55H372.876V46.072L366.108 55H363.93V42.4ZM383.706 42.4H393.516V44.326H386.01V47.422H389.736C391.248 47.422 392.394 47.74 393.174 48.376C393.966 49 394.362 49.906 394.362 51.094C394.362 52.342 393.93 53.308 393.066 53.992C392.202 54.664 390.972 55 389.376 55H383.706V42.4ZM389.25 53.2C390.15 53.2 390.834 53.026 391.302 52.678C391.77 52.33 392.004 51.826 392.004 51.166C392.004 49.87 391.086 49.222 389.25 49.222H386.01V53.2H389.25ZM406.374 53.038V55H396.924V42.4H406.122V44.362H399.264V47.638H405.348V49.564H399.264V53.038H406.374ZM410.3 42.4L413.27 46.612L416.24 42.4H418.976L414.746 48.448L419.318 55H416.546L413.27 50.41L410.012 55H407.312L411.866 48.538L407.6 42.4H410.3ZM429.024 52.084H422.724L421.482 55H419.07L424.74 42.4H427.044L432.732 55H430.284L429.024 52.084ZM428.25 50.248L425.874 44.74L423.516 50.248H428.25ZM443.176 44.38H439V55H436.678V44.38H432.52V42.4H443.176V44.38ZM452.913 52.084H446.613L445.371 55H442.959L448.629 42.4H450.933L456.621 55H454.173L452.913 52.084ZM452.139 50.248L449.763 44.74L447.405 50.248H452.139ZM463.737 42.4C464.829 42.4 465.777 42.58 466.581 42.94C467.397 43.3 468.021 43.816 468.453 44.488C468.885 45.16 469.101 45.958 469.101 46.882C469.101 47.794 468.885 48.592 468.453 49.276C468.021 49.948 467.397 50.464 466.581 50.824C465.777 51.184 464.829 51.364 463.737 51.364H460.893V55H458.553V42.4H463.737ZM463.629 49.384C464.649 49.384 465.423 49.168 465.951 48.736C466.479 48.304 466.743 47.686 466.743 46.882C466.743 46.078 466.479 45.46 465.951 45.028C465.423 44.596 464.649 44.38 463.629 44.38H460.893V49.384H463.629Z" fill="white"/>
<g filter="url(#filter0_d)">
<path d="M259.25 42.7823V54.6294C259.25 55.6659 259.523 56.684 260.041 57.5816C260.559 58.4792 261.305 59.2246 262.202 59.7429L272.461 65.6652C273.359 66.1836 274.377 66.4565 275.414 66.4565C276.45 66.4565 277.469 66.1836 278.366 65.6652L288.625 59.7429C289.524 59.2253 290.27 58.4802 290.789 57.5825C291.308 56.6849 291.582 55.6664 291.583 54.6294V42.7823C291.583 41.746 291.31 40.7279 290.792 39.8305C290.274 38.9331 289.528 38.188 288.63 37.6701L278.371 31.7465C277.474 31.2281 276.456 30.9552 275.419 30.9552C274.382 30.9552 273.364 31.2281 272.467 31.7465L262.208 37.6701C261.309 38.1873 260.562 38.9322 260.043 39.8296C259.524 40.7271 259.25 41.7454 259.25 42.7823Z" fill="#005395" stroke="white" stroke-width="2.5" stroke-miterlimit="10"/>
<path d="M269.799 53.1377H270.721V50.6915H271.348V53.6613H267.618V50.6915H268.248V53.1377H269.17V50.6915H269.804L269.799 53.1377Z" fill="white"/>
<path d="M273.914 53.6611L273.699 52.9536H272.616L272.396 53.6611H271.73L272.777 50.6793H273.548L274.599 53.6611H273.914ZM273.549 52.426C273.35 51.7865 273.237 51.4241 273.213 51.3402C273.189 51.2562 273.169 51.1896 273.158 51.1403C273.114 51.318 272.986 51.7465 272.775 52.426H273.549Z" fill="white"/>
<path d="M277.006 53.1204H277.601V54.526H276.994V53.6613H276.649L275.958 52.5382L275.268 53.6613H274.593L275.579 52.1305L274.662 50.6915H275.356L275.996 51.7574L276.623 50.6915H277.301L276.369 52.1651L277.006 53.1204Z" fill="white"/>
<path d="M280.108 51.6187C280.117 51.7555 280.095 51.8923 280.043 52.0192C279.991 52.1461 279.912 52.2597 279.81 52.3515C279.565 52.5348 279.263 52.6245 278.957 52.6047H278.691V53.6612H278.062V50.6914H279.011C279.303 50.6714 279.593 50.7538 279.831 50.9246C279.928 51.0114 280.003 51.1191 280.051 51.2395C280.099 51.3598 280.118 51.4896 280.108 51.6187ZM278.687 52.0917H278.895C279.048 52.1028 279.201 52.0625 279.329 51.9771C279.378 51.9368 279.416 51.8854 279.441 51.8273C279.466 51.7691 279.477 51.7059 279.473 51.6427C279.478 51.5829 279.47 51.5227 279.449 51.4663C279.428 51.41 279.395 51.3588 279.353 51.3163C279.243 51.2371 279.108 51.1998 278.973 51.211H278.687V52.0917Z" fill="white"/>
<path d="M280.669 50.6915H281.236V52.1265L281.228 52.5102L281.208 52.9458H281.22L282.591 50.6915H283.345V53.6613H282.789V52.2357C282.789 52.0452 282.801 51.7614 282.825 51.387H282.809L281.433 53.6613H280.675L280.669 50.6915Z" fill="white"/>
<path d="M267.224 56.6282H267.467C267.783 56.6081 268.097 56.6903 268.363 56.8626C268.467 56.9389 268.55 57.0397 268.606 57.1559C268.661 57.2721 268.687 57.4002 268.68 57.5288C268.68 58.1506 268.271 58.4615 267.453 58.4615H266.589V55.4877H268.465V56.0086H267.219L267.224 56.6282ZM267.224 57.9418H267.435C267.597 57.9536 267.76 57.918 267.902 57.8393C267.951 57.8045 267.991 57.7577 268.017 57.7033C268.043 57.649 268.054 57.5889 268.05 57.5288C268.055 57.4706 268.043 57.4124 268.016 57.3604C267.99 57.3085 267.949 57.2648 267.9 57.2344C267.738 57.1612 267.561 57.13 267.384 57.1438H267.224V57.9418Z" fill="white"/>
<path d="M270.959 58.4575H269.249V55.4877H270.959V56.0046H269.879V56.6561H270.883V57.1717H269.879V57.9378H270.959V58.4575Z" fill="white"/>
<path d="M273.978 58.4575H273.26L272.568 57.3343L271.878 58.4575H271.204L272.189 56.9266L271.267 55.4877H271.962L272.602 56.5535L273.229 55.4877H273.907L272.975 56.9599L273.978 58.4575Z" fill="white"/>
<path d="M276.17 58.4572L275.954 57.7498H274.872L274.662 58.4572H273.984L275.032 55.4755H275.802L276.854 58.4572H276.17ZM275.805 57.2222C275.605 56.5826 275.493 56.2207 275.468 56.1363C275.444 56.0524 275.425 55.9857 275.415 55.9365C275.369 56.1141 275.241 56.5427 275.031 57.2222H275.805Z" fill="white"/>
<path d="M278.367 58.4575H277.738V56.0126H276.939V55.4877H279.18V56.0126H278.374L278.367 58.4575Z" fill="white"/>
<path d="M281.449 58.4572L281.233 57.7498H280.151L279.935 58.4572H279.257L280.304 55.4755H281.074L282.127 58.4572H281.449ZM281.082 57.2222C280.883 56.5826 280.772 56.2207 280.747 56.1363C280.721 56.0524 280.704 55.9857 280.693 55.9365C280.648 56.1141 280.52 56.5427 280.308 57.2222H281.082Z" fill="white"/>
<path d="M284.552 56.4148C284.562 56.5526 284.54 56.6908 284.489 56.8189C284.437 56.9471 284.357 57.0618 284.255 57.1543C284.01 57.3377 283.707 57.4275 283.402 57.4074H283.136V58.464H282.505V55.4875H283.455C283.748 55.4677 284.039 55.5501 284.277 55.7207C284.373 55.8079 284.447 55.9158 284.495 56.0361C284.542 56.1563 284.562 56.2859 284.552 56.4148ZM283.13 56.8878H283.337C283.49 56.8991 283.643 56.8588 283.771 56.7732C283.82 56.733 283.859 56.6817 283.884 56.6235C283.909 56.5654 283.92 56.5021 283.916 56.4388C283.921 56.3788 283.913 56.3186 283.892 56.2622C283.871 56.2058 283.838 56.1547 283.795 56.1124C283.686 56.0332 283.551 55.9958 283.417 56.0071H283.13V56.8878Z" fill="white"/>
<path d="M282.838 42.2704L274.896 37.7285C274.589 37.5611 274.232 37.5109 273.891 37.5874C273.55 37.6639 273.248 37.8617 273.042 38.1442L271.503 40.3438C271.401 40.4891 271.331 40.6538 271.297 40.8276C271.262 41.0014 271.264 41.1804 271.302 41.3534C271.341 41.5264 271.414 41.6896 271.519 41.8325C271.624 41.9754 271.757 42.0951 271.91 42.1838L273.585 43.1511L273.283 43.5508C273.116 43.7708 273.027 44.04 273.03 44.3161C273.032 44.5921 273.126 44.8595 273.297 45.0763L272.852 45.7425H270.686V44.8698C270.686 44.8314 270.678 44.7934 270.664 44.758C270.649 44.7226 270.627 44.6905 270.6 44.6635C270.573 44.6365 270.54 44.6151 270.505 44.6007C270.469 44.5863 270.431 44.579 270.393 44.5794H269.222C269.183 44.579 269.145 44.5863 269.11 44.6007C269.074 44.6151 269.042 44.6365 269.015 44.6635C268.987 44.6905 268.966 44.7226 268.951 44.758C268.936 44.7934 268.929 44.8314 268.929 44.8698V47.8009C268.929 47.8787 268.96 47.9532 269.015 48.0082C269.07 48.0632 269.144 48.0941 269.222 48.0941H270.398C270.437 48.0942 270.475 48.0868 270.511 48.0721C270.546 48.0574 270.579 48.0359 270.606 48.0086C270.633 47.9813 270.655 47.949 270.669 47.9133C270.684 47.8777 270.692 47.8395 270.691 47.8009V47.5078H272.858C273.148 47.509 273.433 47.4382 273.689 47.3017C273.945 47.1652 274.163 46.9673 274.323 46.7258L274.803 46.005C275.075 46.0736 275.361 46.0511 275.619 45.9408C275.877 45.8306 276.091 45.6387 276.229 45.3947L276.551 44.8618L279.042 46.3007C279.087 46.3269 279.138 46.3407 279.189 46.3407C279.218 46.3409 279.247 46.3364 279.274 46.3274C279.313 46.316 279.348 46.2969 279.378 46.2712C279.409 46.2455 279.434 46.2139 279.452 46.1782L279.669 45.7438C279.703 45.7438 279.738 45.7545 279.774 45.7545C280.317 45.7513 280.837 45.533 281.219 45.1475C281.602 44.7619 281.816 44.2405 281.815 43.6973C281.813 43.5682 281.798 43.4397 281.77 43.3136L282.825 42.7807C282.872 42.7566 282.912 42.7203 282.94 42.6755C282.969 42.6308 282.985 42.5792 282.986 42.5262C282.987 42.4743 282.973 42.4232 282.947 42.3782C282.921 42.3332 282.884 42.296 282.838 42.2704ZM270.101 47.5078H269.515V45.1629H270.101V47.5078ZM273.832 46.402C273.725 46.5624 273.58 46.6939 273.41 46.7848C273.24 46.8757 273.05 46.9232 272.858 46.9229H270.686V46.338H272.852C272.949 46.3377 273.045 46.3131 273.129 46.2666C273.214 46.22 273.286 46.153 273.339 46.0716L273.745 45.4627L274.247 45.7651L273.832 46.402ZM275.722 45.095C275.617 45.2613 275.451 45.3808 275.26 45.4286C275.069 45.4765 274.867 45.4491 274.695 45.3521L273.953 44.9071C273.871 44.8581 273.8 44.7923 273.744 44.7139C273.689 44.6356 273.651 44.5465 273.633 44.4525C273.614 44.3585 273.616 44.2616 273.637 44.1683C273.659 44.0749 273.699 43.9871 273.757 43.9105L274.102 43.4495L276.039 44.5674L275.722 45.095ZM279.058 45.6359L272.205 41.6815C272.122 41.6338 272.049 41.5692 271.993 41.4919C271.936 41.4146 271.896 41.3263 271.875 41.2327C271.854 41.139 271.853 41.0421 271.872 40.948C271.89 40.8539 271.929 40.7648 271.984 40.6863L272.719 39.6364L279.967 43.8173L279.058 45.6359ZM279.958 45.1469L280.571 43.9198L281.221 43.5948C281.221 43.6307 281.23 43.6667 281.23 43.7027C281.228 44.0566 281.098 44.3979 280.864 44.6634C280.63 44.9288 280.307 45.1006 279.956 45.1469H279.958ZM280.358 43.3683L273.055 39.1541L273.521 38.4879C273.639 38.3196 273.816 38.2014 274.016 38.1563C274.217 38.1112 274.427 38.1425 274.606 38.2441L282.074 42.5076L280.358 43.3683Z" fill="white"/>
<path d="M278.593 44.5798C278.755 44.5798 278.886 44.4485 278.886 44.2866C278.886 44.1248 278.755 43.9935 278.593 43.9935C278.431 43.9935 278.3 44.1248 278.3 44.2866C278.3 44.4485 278.431 44.5798 278.593 44.5798Z" fill="white"/>
</g>
<path d="M619.152 57.8V59.192L614.8 69H612.576L616.784 59.56H612.384V61.464H610.448V57.8H619.152ZM629.388 69.112C628.503 69.112 627.708 68.9253 627.004 68.552C626.3 68.1787 625.751 67.6613 625.356 67C624.962 66.328 624.764 65.5707 624.764 64.728C624.764 63.8853 624.962 63.1333 625.356 62.472C625.751 61.8107 626.295 61.2933 626.988 60.92C627.692 60.5467 628.492 60.36 629.388 60.36C630.231 60.36 630.967 60.5307 631.596 60.872C632.236 61.2133 632.716 61.704 633.036 62.344L631.5 63.24C631.255 62.8453 630.946 62.552 630.572 62.36C630.21 62.1573 629.81 62.056 629.372 62.056C628.626 62.056 628.007 62.3013 627.516 62.792C627.026 63.272 626.78 63.9173 626.78 64.728C626.78 65.5387 627.02 66.1893 627.5 66.68C627.991 67.16 628.615 67.4 629.372 67.4C629.81 67.4 630.21 67.304 630.572 67.112C630.946 66.9093 631.255 66.6107 631.5 66.216L633.036 67.112C632.706 67.752 632.22 68.248 631.58 68.6C630.951 68.9413 630.22 69.112 629.388 69.112ZM638.48 69.112C637.616 69.112 636.837 68.9253 636.144 68.552C635.451 68.1787 634.907 67.6613 634.512 67C634.128 66.328 633.936 65.5707 633.936 64.728C633.936 63.8853 634.128 63.1333 634.512 62.472C634.907 61.8107 635.451 61.2933 636.144 60.92C636.837 60.5467 637.616 60.36 638.48 60.36C639.355 60.36 640.139 60.5467 640.832 60.92C641.525 61.2933 642.064 61.8107 642.448 62.472C642.843 63.1333 643.04 63.8853 643.04 64.728C643.04 65.5707 642.843 66.328 642.448 67C642.064 67.6613 641.525 68.1787 640.832 68.552C640.139 68.9253 639.355 69.112 638.48 69.112ZM638.48 67.4C639.216 67.4 639.824 67.1547 640.304 66.664C640.784 66.1733 641.024 65.528 641.024 64.728C641.024 63.928 640.784 63.2827 640.304 62.792C639.824 62.3013 639.216 62.056 638.48 62.056C637.744 62.056 637.136 62.3013 636.656 62.792C636.187 63.2827 635.952 63.928 635.952 64.728C635.952 65.528 636.187 66.1733 636.656 66.664C637.136 67.1547 637.744 67.4 638.48 67.4ZM653.416 69V63.336L650.536 68.104H649.672L646.84 63.32V69H645.016V60.456H647.112L650.152 65.8L653.336 60.456H655.208L655.224 69H653.416ZM661.363 55.528H663.155L657.875 70.6H656.082L661.363 55.528ZM671.197 69V63.336L668.317 68.104H667.453L664.621 63.32V69H662.797V60.456H664.893L667.933 65.8L671.117 60.456H672.989L673.005 69H671.197ZM683.688 64.776C683.688 64.9147 683.677 65.112 683.656 65.368H676.952C677.069 65.9973 677.373 66.4987 677.864 66.872C678.365 67.2347 678.984 67.416 679.72 67.416C680.658 67.416 681.432 67.1067 682.04 66.488L683.112 67.72C682.728 68.1787 682.242 68.5253 681.656 68.76C681.069 68.9947 680.408 69.112 679.672 69.112C678.733 69.112 677.906 68.9253 677.192 68.552C676.477 68.1787 675.922 67.6613 675.528 67C675.144 66.328 674.952 65.5707 674.952 64.728C674.952 63.896 675.138 63.1493 675.512 62.488C675.896 61.816 676.424 61.2933 677.096 60.92C677.768 60.5467 678.525 60.36 679.368 60.36C680.2 60.36 680.941 60.5467 681.592 60.92C682.253 61.2827 682.765 61.8 683.128 62.472C683.501 63.1333 683.688 63.9013 683.688 64.776ZM679.368 61.96C678.728 61.96 678.184 62.152 677.736 62.536C677.298 62.9093 677.032 63.4107 676.936 64.04H681.784C681.698 63.4213 681.437 62.92 681 62.536C680.562 62.152 680.018 61.96 679.368 61.96ZM689.763 69.112C688.878 69.112 688.083 68.9253 687.379 68.552C686.675 68.1787 686.126 67.6613 685.731 67C685.337 66.328 685.139 65.5707 685.139 64.728C685.139 63.8853 685.337 63.1333 685.731 62.472C686.126 61.8107 686.67 61.2933 687.363 60.92C688.067 60.5467 688.867 60.36 689.763 60.36C690.606 60.36 691.342 60.5307 691.971 60.872C692.611 61.2133 693.091 61.704 693.411 62.344L691.875 63.24C691.63 62.8453 691.321 62.552 690.947 62.36C690.585 62.1573 690.185 62.056 689.747 62.056C689.001 62.056 688.382 62.3013 687.891 62.792C687.401 63.272 687.155 63.9173 687.155 64.728C687.155 65.5387 687.395 66.1893 687.875 66.68C688.366 67.16 688.99 67.4 689.747 67.4C690.185 67.4 690.585 67.304 690.947 67.112C691.321 66.9093 691.63 66.6107 691.875 66.216L693.411 67.112C693.081 67.752 692.595 68.248 691.955 68.6C691.326 68.9413 690.595 69.112 689.763 69.112Z" fill="white"/>
<path d="M613.488 33.944L616.104 35.36L614.928 37.328L612.288 35.768L612.336 38.672H610.08L610.104 35.744L607.464 37.328L606.312 35.36L608.928 33.944L606.312 32.504L607.464 30.536L610.104 32.12L610.08 29.192H612.336L612.288 32.12L614.928 30.536L616.104 32.504L613.488 33.944ZM624.636 47.288C623.244 47.288 622.004 46.944 620.916 46.256C619.828 45.568 618.972 44.576 618.348 43.28C617.74 41.968 617.436 40.408 617.436 38.6C617.436 36.792 617.74 35.24 618.348 33.944C618.972 32.632 619.828 31.632 620.916 30.944C622.004 30.256 623.244 29.912 624.636 29.912C626.028 29.912 627.268 30.256 628.356 30.944C629.444 31.632 630.292 32.632 630.9 33.944C631.524 35.24 631.836 36.792 631.836 38.6C631.836 40.408 631.524 41.968 630.9 43.28C630.292 44.576 629.444 45.568 628.356 46.256C627.268 46.944 626.028 47.288 624.636 47.288ZM624.636 44C625.66 44 626.46 43.56 627.036 42.68C627.628 41.8 627.924 40.44 627.924 38.6C627.924 36.76 627.628 35.4 627.036 34.52C626.46 33.64 625.66 33.2 624.636 33.2C623.628 33.2 622.828 33.64 622.236 34.52C621.66 35.4 621.372 36.76 621.372 38.6C621.372 40.44 621.66 41.8 622.236 42.68C622.828 43.56 623.628 44 624.636 44ZM639.629 29.912C641.981 29.912 643.821 30.632 645.149 32.072C646.477 33.496 647.141 35.552 647.141 38.24C647.141 40.144 646.781 41.776 646.061 43.136C645.357 44.496 644.357 45.528 643.061 46.232C641.765 46.936 640.269 47.288 638.573 47.288C637.677 47.288 636.821 47.192 636.005 47C635.189 46.792 634.493 46.504 633.917 46.136L635.357 43.28C636.173 43.84 637.221 44.12 638.501 44.12C639.925 44.12 641.053 43.704 641.885 42.872C642.717 42.024 643.165 40.808 643.229 39.224C642.221 40.232 640.829 40.736 639.053 40.736C637.981 40.736 637.005 40.52 636.125 40.088C635.245 39.656 634.549 39.048 634.037 38.264C633.525 37.464 633.269 36.544 633.269 35.504C633.269 34.384 633.549 33.4 634.109 32.552C634.669 31.704 635.429 31.056 636.389 30.608C637.365 30.144 638.445 29.912 639.629 29.912ZM639.917 37.832C640.765 37.832 641.453 37.6 641.981 37.136C642.525 36.656 642.797 36.048 642.797 35.312C642.797 34.576 642.533 33.976 642.005 33.512C641.493 33.048 640.781 32.816 639.869 32.816C639.037 32.816 638.357 33.04 637.829 33.488C637.317 33.936 637.061 34.544 637.061 35.312C637.061 36.08 637.317 36.696 637.829 37.16C638.357 37.608 639.053 37.832 639.917 37.832ZM656.206 47.288C654.814 47.288 653.574 46.944 652.486 46.256C651.398 45.568 650.542 44.576 649.918 43.28C649.31 41.968 649.006 40.408 649.006 38.6C649.006 36.792 649.31 35.24 649.918 33.944C650.542 32.632 651.398 31.632 652.486 30.944C653.574 30.256 654.814 29.912 656.206 29.912C657.598 29.912 658.838 30.256 659.926 30.944C661.014 31.632 661.862 32.632 662.47 33.944C663.094 35.24 663.406 36.792 663.406 38.6C663.406 40.408 663.094 41.968 662.47 43.28C661.862 44.576 661.014 45.568 659.926 46.256C658.838 46.944 657.598 47.288 656.206 47.288ZM656.206 44C657.23 44 658.03 43.56 658.606 42.68C659.198 41.8 659.494 40.44 659.494 38.6C659.494 36.76 659.198 35.4 658.606 34.52C658.03 33.64 657.23 33.2 656.206 33.2C655.198 33.2 654.398 33.64 653.806 34.52C653.23 35.4 652.942 36.76 652.942 38.6C652.942 40.44 653.23 41.8 653.806 42.68C654.398 43.56 655.198 44 656.206 44ZM671.199 29.912C673.551 29.912 675.391 30.632 676.719 32.072C678.047 33.496 678.711 35.552 678.711 38.24C678.711 40.144 678.351 41.776 677.631 43.136C676.927 44.496 675.927 45.528 674.631 46.232C673.335 46.936 671.839 47.288 670.143 47.288C669.247 47.288 668.391 47.192 667.575 47C666.759 46.792 666.063 46.504 665.487 46.136L666.927 43.28C667.743 43.84 668.791 44.12 670.071 44.12C671.495 44.12 672.623 43.704 673.455 42.872C674.287 42.024 674.735 40.808 674.799 39.224C673.791 40.232 672.399 40.736 670.623 40.736C669.551 40.736 668.575 40.52 667.695 40.088C666.815 39.656 666.119 39.048 665.607 38.264C665.095 37.464 664.839 36.544 664.839 35.504C664.839 34.384 665.119 33.4 665.679 32.552C666.239 31.704 666.999 31.056 667.959 30.608C668.935 30.144 670.015 29.912 671.199 29.912ZM671.487 37.832C672.335 37.832 673.023 37.6 673.551 37.136C674.095 36.656 674.367 36.048 674.367 35.312C674.367 34.576 674.103 33.976 673.575 33.512C673.063 33.048 672.351 32.816 671.439 32.816C670.607 32.816 669.927 33.04 669.399 33.488C668.887 33.936 668.631 34.544 668.631 35.312C668.631 36.08 668.887 36.696 669.399 37.16C669.927 37.608 670.623 37.832 671.487 37.832ZM692.505 40.544H695.625V43.16H692.193L691.713 47H689.001L689.481 43.16H685.953L685.473 47H682.785L683.265 43.16H680.121V40.544H683.577L684.081 36.656H680.937V34.04H684.393L684.873 30.2H687.561L687.081 34.04H690.609L691.089 30.2H693.777L693.297 34.04H696.417L696.441 36.656H692.985L692.505 40.544ZM689.793 40.544L690.297 36.656H686.769L686.265 40.544H689.793Z" fill="white"/>
<path d="M505.359 117.464C501.027 114.963 498.359 110.341 498.359 105.34L498.359 82.6602C498.359 77.6585 501.027 73.0367 505.359 70.5359L525 59.1961C529.332 56.6953 534.668 56.6953 539 59.1961L558.641 70.5359C562.973 73.0367 565.641 77.6585 565.641 82.6602L565.641 105.34C565.641 110.341 562.973 114.963 558.641 117.464L539 128.804C534.668 131.305 529.332 131.305 525 128.804L505.359 117.464Z" stroke="white" stroke-opacity="0.5" stroke-width="2"/>
<defs>
<filter id="filter0_d" x="227" y="-0.293945" width="96.875" height="100" filterUnits="userSpaceOnUse" color-interpolation-filters="sRGB">
<feFlood flood-opacity="0" result="BackgroundImageFix"/>
<feColorMatrix in="SourceAlpha" type="matrix" values="0 0 0 0 0 0 0 0 0 0 0 0 0 0 0 0 0 0 127 0"/>
<feOffset dy="1"/>
<feGaussianBlur stdDeviation="15"/>
<feColorMatrix type="matrix" values="0 0 0 0 1 0 0 0 0 1 0 0 0 0 1 0 0 0 0.5 0"/>
<feBlend mode="normal" in2="BackgroundImageFix" result="effect1_dropShadow"/>
<feBlend mode="normal" in="SourceGraphic" in2="effect1_dropShadow" result="shape"/>
</filter>
</defs>
</svg>
